<?xml version="1.0" encoding="utf-8" standalone="yes"?>
<!DOCTYPE svg PUBLIC "-//W3C//DTD SVG 1.1//EN" "http://www.w3.org/Graphics/SVG/1.1/DTD/svg11.dtd">
<svg width="652" height="549" viewBox="0 0 652 549" style="fill:none;stroke:none;fill-rule:evenodd;clip-rule:evenodd;stroke-linecap:round;stroke-linejoin:round;stroke-miterlimit:1.5;" version="1.1" xmlns="http://www.w3.org/2000/svg" xmlns:xlink="http://www.w3.org/1999/xlink"><style class="text-font-style fontImports" data-font-family="Shantell Sans">@import url('https://fonts.googleapis.com/css2?family=Shantell+Sans:wght@300..800&amp;display=block');</style><g id="items" style="isolation: isolate"><g id="blend" style="mix-blend-mode: normal"><g id="g-root--1.cu_sy_dg31eq1dzc5qm-fill" data-item-order="-65422" transform="translate(237.16741943359375, 100.1656494140625)"><g id="-1.cu_sy_dg31eq1dzc5qm-fill" stroke="none" fill="#6b6b6b"><g><path d="M 62.432581 400.434373L 70.932581 393.434373L 58.232581 378.034373L 49.732581 385.034373ZM 5.632581 366.534373L 19.732581 372.834373L 27.932581 354.634373L 13.932581 348.234373ZM 42.932581 266.434373L 69.032581 270.234373L 71.832581 250.434373L 45.732581 246.634373ZM 13.732581 237.334373L 16.732581 238.434373L 30.732581 222.334373L 20.632581 218.634373ZM 30.732581 222.334373L 17.332581 197.434373L 5.332581 217.234373L 16.732581 238.434373ZM 5.332581 217.234373L 25.332581 217.534373L 25.632581 197.534373L 17.332581 197.434373ZM 142.532581 193.934373L 150.232581 195.734373L 158.932581 177.134373L 146.932581 174.434373ZM 158.932581 177.134373L 112.132581 141.134373L 105.332581 161.134373L 150.232581 195.734373ZM 105.332581 161.134373L 137.132581 161.034373L 137.032581 141.034373L 112.132581 141.134373ZM 146.832581 187.734373L 159.932581 191.734373L 165.732581 172.634373L 152.732581 168.634373ZM 31.132581 125.434373L 76.532581 135.234373L 82.632581 116.134373L 35.332581 105.934373ZM 82.632581 116.134373L 14.232581 87.034373L 11.232581 107.534373L 76.532581 135.234373ZM 11.232581 107.534373L 21.232581 106.334373L 33.032581 84.934373L 14.232581 87.034373ZM 33.032581 84.934373L 21.232581 60.934373L 6.032581 75.434373L 21.232581 106.334373ZM 6.032581 75.434373L 23.032581 84.734373L 32.632581 67.234373L 21.232581 60.934373ZM 145.232581 49.234373L 153.632581 58.734373L 168.632581 45.534373L 160.332581 36.034373ZM 111.832581 31.034373L 123.632581 35.234373L 130.332581 16.434373L 118.532581 12.234373Z" fill-rule="nonzero"></path></g></g></g><g id="g-root-5.cu_sy_1uqjjz61dzc4qv-fill" data-item-order="-65418" transform="translate(242.19393920898438, 381.1650390625)"><g id="5.cu_sy_1uqjjz61dzc4qv-fill" stroke="none" fill="#346778"><g><path d="M 89.306061 21.634961L 85.306061 7.634961L 66.106061 13.234961L 70.106061 27.234961ZM 55.106061 40.734961L 51.006061 40.034961L 38.306061 36.134961L 25.606061 35.934961L 22.606061 35.934961L 9.606061 56.034961L 24.906061 55.934961L 30.006061 55.434961L 39.806061 53.734961L 40.906061 54.834961ZM 9.606061 56.034961L 24.106061 89.134961L 41.406061 78.934961L 22.606061 35.934961ZM 41.406061 78.934961L 33.906061 69.134961L 18.106061 81.334961L 24.106061 89.134961ZM 67.006061 77.234961L 62.806061 67.834961L 44.506061 75.934961L 48.706061 85.434961Z" fill-rule="nonzero"></path></g></g></g><g id="g-root-4.cu_sy_1czw0ki1dzc3y8-fill" data-item-order="-65414" transform="translate(316.013916015625, 254.9658203125)"><g id="4.cu_sy_1czw0ki1dzc3y8-fill" stroke="none" fill="#776f30"><g><path d="M 61.786053 11.634195L 61.286053 15.334195L 60.486053 20.034195L 61.986053 57.434195L 81.486053 48.434195L 79.686053 20.634195L 80.386053 19.034195ZM 81.486053 48.434195L 66.486053 36.934195L 46.886053 34.134195L 35.586053 37.634195L 31.386053 32.634195L 13.986053 43.134195L 19.286053 49.234195L 46.486053 54.434195L 54.586053 50.234195L 61.986053 57.434195ZM 13.986053 43.134195L 31.086053 86.534195L 47.086053 72.534195L 31.386053 32.634195ZM 47.086053 72.534195L 30.486053 63.434195L 20.886053 80.934195L 31.086053 86.534195ZM 31.086053 28.234195L 32.986053 28.534195L 36.086053 8.734195L 34.086053 8.434195Z" fill-rule="nonzero"></path></g></g></g><g id="g-root-3.cu_sy_qtez1e1dzc361-fill" data-item-order="-65410" transform="translate(242.3424072265625, 254.16552734375)"><g id="3.cu_sy_qtez1e1dzc361-fill" stroke="none" fill="#60703f"><g><path d="M 81.857593 9.834488L 78.857593 8.434488L 70.657593 26.634488L 73.557593 28.034488ZM 62.457593 48.534488L 55.657593 42.134488L 35.657593 35.534488L 25.157593 37.134488L 23.657593 36.434488L 7.657593 51.034488L 14.057593 54.034488L 34.557593 55.134488L 41.057593 52.834488L 46.057593 59.934488ZM 7.657593 51.034488L 21.257593 88.434488L 39.357593 79.934488L 23.657593 36.434488ZM 39.357593 79.934488L 32.357593 68.034488L 15.157593 78.234488L 21.257593 88.434488ZM 71.757593 77.134488L 67.757593 70.734488L 50.757593 81.434488L 54.757593 87.734488Z" fill-rule="nonzero"></path></g></g></g><g id="g-root-2.cu_sy_924yjm1dzc5j6-fill" data-item-order="-65406" transform="translate(316.01373291015625, 128.07073974609375)"><g id="2.cu_sy_924yjm1dzc5j6-fill" stroke="none" fill="#815d3b"><g><path d="M 56.886267 13.129268L 59.886267 13.029268L 57.386267 24.729268L 62.086267 54.329268L 79.186267 39.929268L 74.986267 22.429268L 72.586267 25.429268ZM 79.186267 39.929268L 65.186267 35.129268L 59.186267 34.329268L 40.786267 35.429268L 40.786267 35.429268L 20.686267 49.029268L 31.386267 53.229268L 45.686267 55.029268L 59.586267 53.229268L 62.086267 54.329268ZM 20.686267 49.029268L 20.486267 80.729268L 40.586267 69.129268L 40.786267 35.429268ZM 40.586267 69.129268L 27.686267 61.829268L 17.886267 79.229268L 20.486267 80.729268ZM 37.986267 10.729268L 35.986267 9.229268L 23.786267 25.029268L 25.786267 26.629268Z" fill-rule="nonzero"></path></g></g></g><g id="g-root-1.cu_sy_18lxxpe1dzc2yz-fill" data-item-order="-65402" transform="translate(242.225830078125, 127.21466064453125)"><g id="1.cu_sy_18lxxpe1dzc2yz-fill" stroke="none" fill="#41735b"><g><path d="M 87.27417 9.685339L 81.47417 3.485339L 66.87417 17.185339L 72.67417 23.385339ZM 57.57417 43.185339L 48.87417 38.885339L 37.87417 35.985339L 28.47417 35.285339L 29.27417 36.285339L 11.37417 46.085339L 11.37417 46.085339L 34.77417 54.485339L 39.07417 53.785339L 44.77417 58.485339ZM 11.37417 46.085339L 24.87417 89.185339L 43.17417 80.885339L 29.27417 36.285339ZM 43.17417 80.885339L 34.87417 67.385339L 17.87417 77.785339L 24.87417 89.185339ZM 65.07417 71.985339L 56.77417 67.585339L 47.27417 85.085339L 55.47417 89.585339Z" fill-rule="nonzero"></path></g></g></g><g id="g-root--1.cu_1_sy_hzne1u1dzc2z0-fill" data-item-order="-65398" transform="translate(231.71395874023438, 99.9996337890625)"><g id="-1.cu_1_sy_hzne1u1dzc2z0-fill" stroke="none" fill="#6b6b6b"><g><path d="M 19.986041 363.500366L 17.986041 362.100366L 24.586041 345.200366L 21.486041 320.000366L 2.686041 327.800366L 7.186041 348.100366L 8.686041 347.100366ZM 2.686041 327.800366L 7.386041 335.000366L 26.886041 328.500366L 21.486041 320.000366ZM 26.886041 328.500366L 24.886041 302.400366L 6.186041 320.500366L 7.386041 335.000366ZM 6.186041 320.500366L 26.486041 322.700366L 43.986041 304.600366L 24.886041 302.400366ZM 43.986041 304.600366L 40.686041 282.500366L 23.386041 302.000366L 26.486041 322.700366ZM 23.386041 302.000366L 50.986041 301.400366L 69.386041 287.000366L 75.286041 266.100366L 51.586041 281.500366L 51.286041 282.900366L 40.686041 282.500366ZM 51.586041 281.500366L 82.086041 288.000366L 103.486041 272.000366L 75.286041 266.100366ZM 103.486041 272.000366L 105.786041 244.700366L 84.486041 259.800366L 82.086041 288.000366ZM 84.486041 259.800366L 125.586041 270.700366L 142.086041 254.300366L 105.786041 244.700366ZM 142.086041 254.300366L 135.786041 229.900366L 119.486041 246.900366L 125.586041 270.700366ZM 119.486041 246.900366L 143.786041 252.000366L 166.686041 236.300366L 135.786041 229.900366ZM 166.686041 236.300366L 170.186041 214.700366L 147.686041 228.500366L 143.786041 252.000366ZM 147.686041 228.500366L 160.986041 232.800366L 180.086041 218.000366L 170.186041 214.700366ZM 180.086041 218.000366L 178.286041 187.700366L 158.886041 198.300366L 160.986041 232.800366ZM 158.886041 198.300366L 176.086041 210.800366L 187.786041 194.500366L 178.286041 187.700366ZM 7.086041 231.400366L 14.686041 231.600366L 30.886041 212.100366L 7.686041 211.400366ZM 30.886041 212.100366L 25.286041 187.300366L 7.786041 200.400366L 14.686041 231.600366ZM 7.786041 200.400366L 16.786041 205.500366L 35.286041 193.000366L 25.286041 187.300366ZM 35.286041 193.000366L 34.486041 186.400366L 39.086041 185.800366L 52.786041 163.700366L 31.786041 166.600366L 14.586041 189.100366L 16.786041 205.500366ZM 52.786041 163.700366L 47.686041 148.700366L 32.286041 165.500366L 39.086041 185.800366ZM 32.286041 165.500366L 66.486041 173.700366L 87.386041 158.200366L 47.686041 148.700366ZM 87.386041 158.200366L 89.086041 129.400366L 68.186041 144.900366L 66.486041 173.700366ZM 68.186041 144.900366L 107.886041 154.400366L 123.786041 137.600366L 89.086041 129.400366ZM 123.786041 137.600366L 116.286041 112.300366L 99.886041 127.600366L 107.886041 154.400366ZM 99.886041 127.600366L 129.486041 138.500366L 152.086041 125.500366L 116.286041 112.300366ZM 152.086041 125.500366L 153.286041 118.200366L 160.886041 117.700366L 177.486041 96.400366L 153.786041 98.200366L 133.286041 116.700366L 129.486041 138.500366ZM 177.486041 96.400366L 173.586041 73.400366L 156.786041 94.000366L 160.886041 117.700366ZM 156.786041 94.000366L 166.686041 93.700366L 178.486041 73.300366L 173.586041 73.400366ZM 178.486041 73.300366L 170.386041 57.900366L 157.586041 76.400366L 166.686041 93.700366ZM 157.586041 76.400366L 181.586041 79.500366L 184.086041 59.600366L 170.386041 57.900366ZM 6.486041 95.000366L 16.086041 97.200366L 29.586041 79.700366L 10.786041 75.500366ZM 29.586041 79.700366L 16.686041 54.300366L 5.286041 76.000366L 16.086041 97.200366ZM 5.286041 76.000366L 17.886041 73.400366L 34.286041 53.900366L 34.486041 35.000366L 15.186041 54.800366L 15.186041 54.500366L 16.686041 54.300366ZM 15.186041 54.800366L 42.586041 55.100366L 58.186041 35.300366L 34.486041 35.000366ZM 58.186041 35.300366L 53.586041 17.600366L 38.186041 37.900366L 42.586041 55.100366ZM 38.186041 37.900366L 76.286041 37.000366L 75.886041 17.100366L 53.586041 17.600366Z" fill-rule="nonzero"></path></g></g></g><g id="g-root-tx_engaging_1q5q95u1dzdjii-fill" data-item-order="0" transform="translate(16, 4)"><g id="tx_engaging_1q5q95u1dzdjii-fill" stroke="none" fill="#f4f4f4"><g><text style="font: bold 25px &quot;Shantell Sans&quot;, cursive; white-space: pre;" font-weight="bold" font-size="25px" font-family="'Shantell Sans', cursive"><tspan x="15.15" y="42" dominant-baseline="ideographic">Engaging Fitness Journey with FitQuest App </tspan><tspan x="249.72" y="72" dominant-baseline="ideographic">Features</tspan></text></g></g></g><g id="g-root-90_zlbb361dzq618-fill" data-item-order="0" transform="translate(160, 136)"></g><g id="g-root-tx_userprof_4g2pk21dzdi4p-fill" data-item-order="0" transform="translate(16, 148)"><g id="tx_userprof_4g2pk21dzdi4p-fill" stroke="none" fill="#f4f4f4"><g><text style="font: 20px &quot;Shantell Sans&quot;, cursive; white-space: pre;" font-size="20px" font-family="'Shantell Sans', cursive"><tspan x="18.37" y="35" dominant-baseline="ideographic">User Profiles</tspan></text></g></g></g><g id="g-root-baga_5vnj61dz7w99-fill" data-item-order="0" transform="translate(424, 136)"></g><g id="g-root-tx_questsch_i0wc821dzc554-fill" data-item-order="0" transform="translate(484, 136)"><g id="tx_questsch_i0wc821dzc554-fill" stroke="none" fill="#f4f4f4"><g><text style="font: 20px &quot;Shantell Sans&quot;, cursive; white-space: pre;" font-size="20px" font-family="'Shantell Sans', cursive"><tspan x="12" y="35" dominant-baseline="ideographic">Quests &amp; </tspan><tspan x="12" y="59" dominant-baseline="ideographic">Challenges</tspan></text></g></g></g><g id="g-root-tx_progress_zs6cpu1dzc2rz-fill" data-item-order="0" transform="translate(52, 268)"><g id="tx_progress_zs6cpu1dzc2rz-fill" stroke="none" fill="#f4f4f4"><g><text style="font: 20px &quot;Shantell Sans&quot;, cursive; white-space: pre;" font-size="20px" font-family="'Shantell Sans', cursive"><tspan x="21.55" y="35" dominant-baseline="ideographic">Progress </tspan><tspan x="22.55" y="59" dominant-baseline="ideographic">Tracking</tspan></text></g></g></g><g id="g-root-stop_1luwmw21dzlyq2-fill" data-item-order="0" transform="translate(160, 268)"></g><g id="g-root-rati_1qduig21dz7wua-fill" data-item-order="0" transform="translate(424, 268)"></g><g id="g-root-tx_gamifica_1lyne8y1dzc3k6-fill" data-item-order="0" transform="translate(484, 268)"><g id="tx_gamifica_1lyne8y1dzc3k6-fill" stroke="none" fill="#f4f4f4"><g><text style="font: 20px &quot;Shantell Sans&quot;, cursive; white-space: pre;" font-size="20px" font-family="'Shantell Sans', cursive"><tspan x="12" y="35" dominant-baseline="ideographic">Gamification </tspan><tspan x="12" y="59" dominant-baseline="ideographic">Elements</tspan></text></g></g></g><g id="g-root-tx_communit_4o6voi1dzc4jx-fill" data-item-order="0" transform="translate(4, 400)"><g id="tx_communit_4o6voi1dzc4jx-fill" stroke="none" fill="#f4f4f4"><g><text style="font: 20px &quot;Shantell Sans&quot;, cursive; white-space: pre;" font-size="20px" font-family="'Shantell Sans', cursive"><tspan x="25.72" y="35" dominant-baseline="ideographic">Community &amp; </tspan><tspan x="18.7" y="59" dominant-baseline="ideographic">Leaderboards</tspan></text></g></g></g><g id="g-root-firs_18f2pr61dzdipv-fill" data-item-order="0" transform="translate(160, 400)"></g><g id="g-root--1.cu_sy_dg31eq1dzc5qm-stroke" data-item-order="-65422" transform="translate(237.16741943359375, 100.1656494140625)"><g id="-1.cu_sy_dg31eq1dzc5qm-stroke" fill="none" stroke-linecap="round" stroke-linejoin="round" stroke-miterlimit="4" stroke="#f4f4f4" stroke-width="4"><g><path d="M 15.032581 333.534373C 15.932581 334.234373 17.032581 334.534373 18.232581 334.434373C 18.532581 334.434373 18.832581 334.534373 19.232581 334.434373C 24.732581 340.434373 31.032581 346.434373 37.132581 352.034373C 34.432581 352.334373 31.732581 352.334373 29.132581 352.334373C 25.732581 352.134373 23.032581 355.234373 23.232581 358.534373C 23.232581 359.034373 23.032581 359.534373 23.232581 360.034373C 23.832581 363.234373 26.232581 365.234373 29.432581 365.734373C 38.232581 367.134373 47.132581 365.634373 55.932581 364.834373C 61.032581 368.634373 67.232581 371.134373 73.432581 373.934373C 69.232581 381.434373 67.732581 390.234373 63.932581 397.934373C 46.932581 388.634373 27.132581 379.834373 14.932581 364.234373C 8.732581 353.834373 9.032581 343.234373 15.032581 333.534373M 18.532581 207.534373C 17.432581 207.234373 16.232581 207.434373 15.532581 206.634373C 15.832581 205.734373 16.432581 205.034373 16.832581 204.134373C 11.332581 215.234373 6.332581 227.234373 15.032581 237.234373C 25.532581 250.834373 41.232581 260.334373 56.832581 267.434373C 61.832581 263.934373 67.832581 262.634373 72.932581 260.134373C 76.632581 257.734373 81.732581 254.534373 88.332581 253.634373C 76.932581 248.334373 65.732581 244.034373 56.032581 237.834373C 47.332581 237.734373 38.532581 239.434373 29.732581 238.734373C 26.432581 238.534373 24.132581 236.234373 23.532581 233.034373C 23.532581 232.534373 23.432581 232.034373 23.532581 231.534373C 23.532581 228.234373 26.032581 225.334373 29.432581 225.334373C 32.032581 225.234373 34.732581 225.634373 37.332581 225.034373C 30.732581 220.134373 24.432581 213.834373 19.332581 207.534373C 19.132581 207.634373 18.732581 207.534373 18.532581 207.534373M 15.232581 110.034373C 8.132581 98.934373 11.132581 87.834373 16.832581 76.834373C 16.032581 77.434373 15.632581 78.834373 15.032581 79.634373C 16.732581 80.234373 17.532581 80.734373 18.632581 80.534373C 19.032581 80.434373 19.432581 80.334373 19.832581 80.534373C 25.132581 86.734373 30.932581 93.034373 37.532581 98.034373C 34.932581 98.834373 32.132581 98.134373 29.432581 98.334373C 26.032581 98.634373 23.232581 101.334373 23.532581 104.634373C 23.532581 105.134373 23.532581 105.534373 23.532581 106.034373C 23.632581 109.334373 26.532581 112.434373 29.732581 111.834373C 38.432581 110.234373 47.432581 111.234373 56.232581 110.934373C 65.632581 117.734373 77.032581 122.134373 88.832581 126.334373C 88.932581 126.434373 89.132581 126.434373 89.132581 126.534373C 89.032581 126.634373 88.932581 126.634373 88.832581 126.634373C 83.632581 130.834373 77.032581 130.834373 73.332581 133.234373C 68.332581 135.734373 63.032581 137.934373 57.732581 140.434373C 42.232581 132.534373 26.232581 123.334373 15.232581 110.034373M 135.832581 179.534373C 139.932581 179.134373 144.132581 179.534373 148.232581 180.034373C 151.332581 180.434373 154.232581 177.734373 154.132581 174.534373C 154.132581 174.134373 154.032581 173.634373 154.132581 173.234373C 154.632581 170.034373 151.632581 167.834373 148.532581 167.234373C 137.132581 164.834373 125.232581 167.234373 113.732581 165.834373C 105.832581 162.134373 97.332581 158.834373 89.132581 154.334373C 94.832581 151.034373 100.632581 149.934373 104.432581 147.834373C 109.732581 145.634373 115.632581 143.934373 120.532581 140.434373C 136.132581 147.634373 150.532581 158.134373 162.232581 170.634373C 170.932581 180.534373 168.632581 194.534373 160.332581 203.934373C 161.932581 201.634373 163.332581 199.334373 164.232581 196.834373C 163.432581 194.934373 161.532581 193.634373 159.332581 193.734373C 157.032581 193.934373 154.632581 194.234373 152.332581 193.734373C 148.232581 187.734373 141.932581 182.734373 135.832581 179.534373M 113.832581 38.934373C 125.332581 40.034373 136.932581 40.734373 148.532581 40.234373C 151.732581 40.134373 154.432581 43.134373 154.132581 46.334373C 154.132581 46.734373 154.032581 47.134373 154.132581 47.634373C 154.232581 50.834373 151.232581 54.434373 148.232581 53.134373C 144.432581 51.434373 139.932581 52.134373 135.932581 52.634373C 141.932581 55.834373 148.632581 60.434373 152.332581 66.834373C 154.532581 66.134373 157.132581 66.234373 159.332581 66.834373C 161.532581 67.434373 164.032581 68.134373 164.832581 70.034373C 168.632581 61.634373 168.532581 52.334373 162.432581 43.434373C 148.632581 29.234373 130.632581 18.934373 113.432581 10.034373C 110.332581 18.034373 108.132581 26.534373 104.032581 34.034373C 107.132581 35.934373 110.632581 37.234373 113.832581 38.934373"></path><path d="M 15.0326 333.574974C 15.9629 334.145974 17.0468 334.477974 18.1904 334.477974L 19.2095 334.477974C 24.2441 340.891374 30.6852 346.882374 37.1417 352.016474L 29.0881 352.294174C 25.7584 352.427274 23.1879 355.241874 23.1879 358.575574L 23.1879 359.986174C 23.3211 363.313174 26.1447 365.881674 29.4744 365.755274L 55.9034 364.842574C 61.4301 368.046874 67.2932 371.027874 73.3864 373.909574L 63.9578 397.962974C 46.3568 389.782074 28.2306 378.829674 14.9511 364.256774C 7.5094 354.626374 9.223 343.340674 15.0326 333.574974ZM 18.508993 207.484692C 17.421793 207.484692 16.388493 207.184592 15.489793 206.664292C 16.002293 205.803192 16.215993 204.953892 16.788793 204.118592L 16.829493 204.059192L 16.788893 203.999992C 9.719993 214.309792 6.973393 226.752992 15.073293 237.235192C 26.601893 249.886692 41.556193 259.725692 56.875693 267.475292C 62.251193 264.755992 67.643693 262.304292 72.901393 260.096092C 76.947393 258.447692 82.252393 256.256492 88.285993 253.590692C 76.796393 248.554392 66.002593 243.601692 56.067093 237.845092L 29.772693 238.761892C 26.442993 238.888392 23.619393 236.319892 23.486193 232.992892L 23.486193 231.582192C 23.486193 228.248592 26.056793 225.433892 29.386493 225.300892L 37.296993 225.021192C 30.838893 219.888792 24.393793 213.898292 19.353893 207.484692L 18.508993 207.484692ZM 15.235454 110.003595C 7.178654 99.577095 9.808554 87.063395 16.854354 76.799995C 16.306754 77.617195 15.551154 78.809795 15.061554 79.650695C 16.578254 80.525295 17.545354 80.525295 18.648754 80.525295L 19.833554 80.525295C 24.875754 86.939095 31.030054 92.932695 37.489054 98.064495L 29.387554 98.344695C 26.057754 98.477795 23.487254 101.292395 23.487254 104.626095L 23.487254 106.036695C 23.620454 109.363695 26.444054 111.932195 29.773754 111.805795L 56.264154 110.888195C 66.239854 116.666395 77.309154 121.322595 88.847954 126.378595L 89.179754 126.525195L 88.847954 126.670595C 82.749454 129.367795 77.387554 131.582795 73.306454 133.245495C 68.187754 135.395195 62.941254 137.775895 57.707054 140.409495C 42.243154 132.628695 26.871054 122.772395 15.235454 110.003595ZM 135.807554 179.499495L 148.189054 180.001495C 151.398954 180.127895 154.012354 177.729795 154.138954 174.522595L 154.138954 173.244995C 154.138954 170.037795 151.708254 167.349595 148.498354 167.216495L 113.768154 165.834295C 106.001954 161.787995 97.720954 158.040095 89.178954 154.294295C 95.140354 151.663195 100.379454 149.498795 104.386554 147.866195C 109.694154 145.637095 115.139154 143.159795 120.565354 140.409495C 135.832954 148.147695 150.702854 157.992395 162.193054 170.601695C 170.292954 181.083895 167.418554 193.589395 160.349654 203.899295C 160.344054 203.890995 160.338454 203.882795 160.332754 203.874595C 160.338454 203.866295 160.344054 203.858095 160.349754 203.849895C 161.885554 201.609895 163.217354 199.269195 164.278254 196.869795C 163.199754 195.027395 161.570354 193.749395 159.336454 193.749395L 152.319154 193.749395C 147.220154 188.480595 141.368254 183.608295 135.807554 179.499495ZM 113.794533 38.8982L 148.498333 40.2793C 151.708133 40.4124 154.138833 43.1006 154.138833 46.3078L 154.138833 47.5854C 154.012333 50.7926 151.448433 53.2214 148.238633 53.0949L 135.890133 52.6035C 141.449733 56.7126 147.235233 61.5442 152.331733 66.8122L 159.336433 66.8122C 161.576933 66.8122 163.761333 68.2291 164.837533 70.0804C 168.650933 61.6721 169.213533 51.826 162.442533 43.3864C 149.163033 28.8136 131.036833 18.181 113.435733 10L 104.007233 34.0534C 107.344533 35.6318 110.612733 37.2399 113.794533 38.8982Z"></path></g></g></g><g id="g-root-5.cu_sy_1uqjjz61dzc4qv-stroke" data-item-order="-65418" transform="translate(242.19393920898438, 381.1650390625)"><g id="5.cu_sy_1uqjjz61dzc4qv-stroke" fill="none" stroke-linecap="round" stroke-linejoin="round" stroke-miterlimit="4" stroke="#f4f4f4" stroke-width="4"><g><path d="M 10.006061 52.534961C 10.706061 53.434961 12.006061 53.234961 13.206061 53.434961C 36.106061 58.634961 60.206061 53.934961 83.606061 53.434961C 83.606061 48.934961 82.806061 44.234961 83.606061 39.734961C 62.506061 37.934961 41.306061 39.234961 20.106061 39.734961C 16.806061 42.834961 14.106061 46.334961 11.806061 49.734961C 11.106061 50.734961 10.806061 51.734961 10.006061 52.534961M 41.406061 22.034961C 55.406061 23.734961 69.606061 23.534961 83.606061 23.634961C 82.306061 19.634961 83.206061 15.134961 83.606061 10.834961C 76.606061 9.634961 69.306061 9.334961 62.106061 10.034961C 57.506061 12.034961 53.706061 15.134961 49.206061 17.034961C 46.706061 18.034961 44.106061 19.834961 41.406061 22.034961M 18.206061 77.534961C 17.506061 74.334961 20.806061 71.834961 24.106061 71.334961C 34.106061 70.934961 44.206061 69.934961 54.306061 70.234961C 64.106061 70.534961 74.106061 71.234961 83.706061 69.234961C 82.406061 73.534961 84.106061 78.234961 83.706061 82.734961C 64.006061 83.734961 44.206061 85.734961 24.406061 84.734961C 21.106061 84.534961 18.606061 82.334961 18.206061 79.034961C 18.006061 78.534961 18.106061 78.034961 18.206061 77.534961"></path><path d="M 10 52.5716C 10.9317 53.1449 12.0179 53.4784 13.164 53.4784L 83.6541 53.4784L 83.6541 39.7645L 20.0605 39.7645C 16.9742 42.9646 14.1441 46.3246 11.7744 49.7808C 11.1474 50.6952 10.5544 51.6264 10 52.5716ZM 41.4468 22.0036L 83.6541 23.6834L 83.6541 10.8575L 62.1063 10C 57.6559 12.2322 53.3569 14.5455 49.2547 16.9926C 46.8717 18.4182 44.2262 20.1019 41.4468 22.0036ZM 18.1615 77.5759C 18.1615 74.2423 20.7321 71.4276 24.0618 71.2945L 83.6986 69.2384L 83.6986 82.7095L 24.448 84.7556C 21.1183 84.882 18.2947 82.3136 18.1615 78.9866L 18.1615 77.5759Z"></path></g></g></g><g id="g-root-4.cu_sy_1czw0ki1dzc3y8-stroke" data-item-order="-65414" transform="translate(316.013916015625, 254.9658203125)"><g id="4.cu_sy_1czw0ki1dzc3y8-stroke" fill="none" stroke-linecap="round" stroke-linejoin="round" stroke-miterlimit="4" stroke="#f4f4f4" stroke-width="4"><g><path d="M 69.686053 12.334195C 72.786053 11.934195 75.186053 15.234195 75.286053 18.434195C 75.286053 18.834195 75.086053 19.334195 75.286053 19.634195C 74.086053 22.634195 72.586053 25.334195 69.386053 25.234195C 58.586053 24.734195 47.786053 23.934195 36.886053 23.934195C 27.986053 23.934195 18.986053 23.434195 9.986053 22.834195C 10.686053 18.634195 9.986053 14.234195 9.986053 10.034195C 29.886053 11.334195 49.886053 10.534195 69.686053 12.334195M 78.886053 52.634195C 80.086053 51.634195 80.386053 49.934195 81.486053 49.034195C 83.686053 47.334195 84.586053 44.134195 85.586053 41.734195C 84.686053 40.134195 82.586053 39.634195 80.486053 38.934195C 69.786053 35.534195 58.086053 38.834195 46.886053 38.934195C 34.586053 39.034195 22.286053 39.634195 9.986053 38.934195C 10.086053 43.434195 10.886053 48.134195 9.986053 52.634195C 20.286053 51.334195 30.786053 52.634195 41.186053 52.634195C 53.786053 52.634195 66.386053 53.334195 78.886053 52.634195M 65.286053 66.434195C 46.886053 67.034195 28.286053 66.234195 9.986053 68.334195C 10.786053 72.834195 9.286053 77.434195 9.986053 81.834195C 21.986053 81.834195 33.986053 79.834195 45.986053 80.634195C 51.386053 76.434195 59.286053 72.734195 65.286053 66.434195"></path><path d="M 69.652 12.374C 72.8619 12.5071 75.2926 15.1953 75.2926 18.4025L 75.2926 19.6801C 75.1661 22.8874 72.6022 25.3161 69.3923 25.1897L 10 22.8259L 10 10L 69.652 12.374ZM 78.8627 52.6209C 79.8051 51.4275 80.6989 50.2193 81.5354 48.9991C 83.0713 46.7592 84.5356 44.1467 85.5964 41.7473C 84.6142 40.2268 82.6713 38.9458 80.4375 38.9458L 10 38.9069L 10 52.6209L 78.8627 52.6209ZM 65.3074 66.4553L 10 68.3809L 10 81.852L 45.9823 80.5926C 51.7414 77.0178 58.6982 72.1444 65.3074 66.4553Z"></path></g></g></g><g id="g-root-3.cu_sy_qtez1e1dzc361-stroke" data-item-order="-65410" transform="translate(242.3424072265625, 254.16552734375)"><g id="3.cu_sy_qtez1e1dzc361-stroke" fill="none" stroke-linecap="round" stroke-linejoin="round" stroke-miterlimit="4" stroke="#f4f4f4" stroke-width="4"><g><path d="M 9.957593 52.634488C 10.957593 52.934488 12.157593 53.534488 13.157593 53.434488C 36.657593 52.534488 60.257593 54.934488 83.657593 53.434488C 83.457593 48.834488 83.357593 44.334488 83.657593 39.734488C 72.657593 40.534488 61.557593 38.934488 50.557593 39.734488C 40.557593 40.534488 30.357593 38.834488 20.257593 39.734488C 17.057593 43.034488 14.057593 46.434488 11.657593 50.134488C 11.057593 50.934488 10.557593 51.834488 9.957593 52.634488M 41.957593 22.034488C 55.757593 23.734488 69.957593 21.234488 83.657593 23.634488C 84.257593 19.434488 83.357593 15.134488 83.657593 10.834488C 76.857593 12.434488 69.757593 10.034488 62.757593 10.034488C 57.957593 12.134488 53.057593 14.034488 49.257593 17.334488C 47.357593 19.034488 44.357593 20.034488 41.957593 22.034488M 18.357593 77.534488C 18.757593 74.234488 20.957593 70.734488 24.257593 71.234488C 33.957593 70.734488 43.757593 69.334488 53.557593 70.234488C 63.557593 71.234488 73.657593 69.234488 83.657593 69.234488C 83.857593 73.734488 84.357593 78.234488 83.657593 82.734488C 63.957593 83.434488 44.257593 85.434488 24.657593 84.734488C 21.257593 84.634488 17.457593 82.134488 18.357593 78.934488C 18.457593 78.534488 18.357593 78.034488 18.357593 77.534488"></path><path d="M 10.000031 52.6336C 10.898631 53.1539 12.103431 53.454 13.190731 53.454L 83.680831 53.454L 83.680831 39.74L 20.284231 39.74C 17.073131 43.0393 14.074831 46.5121 11.623131 50.0879C 11.050431 50.9232 10.512531 51.7724 10.000031 52.6336ZM 41.933131 21.9974L 83.680831 23.659L 83.680831 10.8331L 62.747331 10C 58.077931 12.3271 53.572131 14.7402 49.281431 17.2997C 47.030131 18.6465 44.544531 20.2237 41.933131 21.9974ZM 18.321731 77.5515C 18.321731 74.2178 20.892231 71.4032 24.222031 71.2701L 83.680831 69.214L 83.680831 82.6851L 24.608231 84.7312C 21.278531 84.8576 18.454931 82.2892 18.321731 78.9621L 18.321731 77.5515Z"></path></g></g></g><g id="g-root-2.cu_sy_924yjm1dzc5j6-stroke" data-item-order="-65406" transform="translate(316.01373291015625, 128.07073974609375)"><g id="2.cu_sy_924yjm1dzc5j6-stroke" fill="none" stroke-linecap="round" stroke-linejoin="round" stroke-miterlimit="4" stroke="#f4f4f4" stroke-width="4"><g><path d="M 69.686267 12.329268C 72.886267 12.429268 74.986267 15.229268 75.286267 18.429268C 75.386267 18.829268 75.386267 19.229268 75.286267 19.729268C 75.986267 22.829268 72.586267 25.529268 69.386267 25.229268C 49.686267 23.029268 29.786267 24.029268 9.986267 22.829268C 10.086267 18.529268 11.486267 14.029268 9.986267 10.029268C 29.886267 11.029268 49.786267 12.229268 69.686267 12.329268M 79.486267 52.629268C 80.286267 51.529268 80.986267 50.329268 81.886267 49.329268C 83.686267 47.229268 85.186267 44.729268 85.886267 42.129268C 84.586267 40.429268 82.786267 38.829268 80.486267 38.929268C 56.986267 39.929268 33.486267 39.729268 9.986267 38.929268C 10.586267 43.429268 10.986267 48.129268 9.986267 52.629268C 33.086267 54.329268 56.386267 51.529268 79.486267 52.629268M 66.086267 66.429268C 47.386267 65.129268 28.586267 66.629268 9.986267 68.429268C 10.986267 72.729268 9.786267 77.329268 9.986267 81.829268C 22.286267 80.529268 34.686267 81.629268 46.886267 80.529268C 52.786267 77.129268 59.586267 72.129268 66.086267 66.429268"></path><path d="M 69.652 12.374C 72.8619 12.5071 75.2926 15.1953 75.2926 18.4025L 75.2926 19.6801C 75.1661 22.8874 72.6022 25.3161 69.3923 25.1897L 10 22.8259L 10 10L 69.652 12.374ZM 79.467 52.6209C 80.3141 51.5352 81.1207 50.4377 81.88 49.3302C 83.4557 47.0322 84.8166 44.6281 85.8905 42.1635C 84.8338 40.2434 82.7819 38.9069 80.4902 38.9069L 10 38.9069L 10 52.6209L 79.467 52.6209ZM 66.0837 66.4415L 10 68.3809L 10 81.852L 46.9214 80.5732C 52.6853 76.9594 59.5694 72.0937 66.0837 66.4415Z"></path></g></g></g><g id="g-root-1.cu_sy_18lxxpe1dzc2yz-stroke" data-item-order="-65402" transform="translate(242.225830078125, 127.21466064453125)"><g id="1.cu_sy_18lxxpe1dzc2yz-stroke" fill="none" stroke-linecap="round" stroke-linejoin="round" stroke-miterlimit="4" stroke="#f4f4f4" stroke-width="4"><g><path d="M 20.07417 39.785339C 18.07417 43.685339 13.57417 45.885339 11.87417 49.685339C 11.37417 50.785339 10.17417 51.485339 9.97417 52.585339C 10.87417 53.185339 11.97417 53.485339 13.07417 53.485339C 26.07417 53.185339 39.07417 54.585339 51.87417 53.485339C 62.47417 52.585339 73.17417 54.285339 83.77417 53.485339C 84.07417 48.885339 83.77417 44.385339 83.77417 39.785339C 73.17417 40.285339 62.47417 40.985339 51.97417 39.785339C 41.37417 38.585339 30.67417 38.485339 20.07417 39.785339M 41.47417 21.985339C 55.57417 22.485339 69.77417 25.085339 83.77417 23.685339C 83.37417 19.385339 83.67417 15.085339 83.77417 10.885339C 76.57417 10.585339 69.17417 8.585339 62.07417 9.985339C 59.07417 11.385339 56.07417 12.785339 53.37417 14.585339C 52.07417 15.485339 50.47417 15.885339 49.37417 16.885339C 47.47417 18.885339 44.17417 19.885339 41.47417 21.985339M 18.47417 77.585339C 18.37417 74.285339 21.27417 72.685339 24.37417 71.285339C 44.17417 71.285339 63.97417 70.685339 83.77417 69.285339C 83.87417 73.685339 83.67417 78.185339 83.77417 82.685339C 64.07417 83.385339 44.37417 84.885339 24.67417 84.785339C 21.37417 84.685339 18.87417 82.285339 18.47417 78.985339C 18.37417 78.485339 18.47417 78.085339 18.47417 77.585339"></path><path d="M 20.0608 39.7625C 16.9982 42.9437 14.1971 46.2553 11.843 49.6887C 11.1882 50.6438 10.5755 51.6202 10 52.6087C 10.9079 53.1433 12.006 53.4765 13.1095 53.4765L 83.7879 53.4765L 83.7879 39.7625L 20.0608 39.7625ZM 41.4923 22.0049L 83.7879 23.6815L 83.7879 10.8556L 62.1184 10C 59.1294 11.5014 56.209 13.0397 53.3708 14.6308C 52.0273 15.3839 50.7022 16.1489 49.3971 16.9275C 46.9864 18.3697 44.3071 20.076 41.4923 22.0049ZM 18.4288 77.574C 18.4288 74.2403 20.9994 71.4257 24.3291 71.2926L 83.7879 69.2365L 83.7879 82.7076L 24.7154 84.7537C 21.3856 84.8801 18.562 82.3117 18.4288 78.9847L 18.4288 77.574Z"></path></g></g></g><g id="g-root--1.cu_1_sy_hzne1u1dzc2z0-stroke" data-item-order="-65398" transform="translate(231.71395874023438, 99.9996337890625)"><g id="-1.cu_1_sy_hzne1u1dzc2z0-stroke" fill="none" stroke-linecap="round" stroke-linejoin="round" stroke-miterlimit="4" stroke="#f4f4f4" stroke-width="4"><g><path d="M 78.486041 260.200366C 58.486041 269.300366 37.386041 282.200366 20.386041 297.900366C 10.786041 306.800366 10.086041 316.800366 9.986041 331.200366C 9.886041 345.500366 11.186041 355.100366 20.386041 364.400366C 11.286041 354.800366 15.086041 341.500366 22.086041 331.200366C 31.586041 317.300366 47.886041 303.900366 59.586041 298.400366C 70.586041 293.200366 81.986041 287.300366 93.986041 281.400366C 99.886041 278.200366 105.186041 275.200366 109.586041 274.800366C 129.986041 266.900366 153.586041 255.500366 167.586041 237.100366C 175.486041 226.800366 177.286041 218.200366 177.986041 203.900366C 178.686041 189.600366 176.186041 180.500366 167.586041 170.700366C 176.086041 180.900366 173.786041 194.200366 165.886041 203.900366C 155.286041 216.900366 139.686041 230.400366 128.386041 236.700366C 117.786041 242.600366 106.586041 249.000366 93.986041 253.600366C 87.486041 255.100366 82.486041 258.400366 78.486041 260.200366M 78.686041 133.400366C 58.186041 141.400366 35.886041 153.900366 20.486041 171.100366C 11.786041 180.900366 10.986041 190.100366 9.986041 204.400366C 9.086041 218.700366 12.386041 227.500366 20.686041 237.600366C 13.686041 226.200366 16.786041 215.600366 22.186041 204.400366C 29.486041 189.200366 48.286041 177.700366 59.786041 171.600366C 70.586041 165.900366 82.186041 160.300366 94.286041 154.600366C 100.386041 151.800366 106.686041 151.100366 109.886041 148.000366C 119.686041 141.900366 131.086041 137.000366 142.186041 131.500366C 152.286041 126.500366 160.686041 118.500366 168.086041 110.300366C 176.886041 100.700366 176.686041 91.300366 178.586041 77.100366C 180.486041 62.900366 177.186041 53.300366 168.086041 43.900366C 177.586041 53.200366 174.486041 67.500366 166.386041 77.100366C 155.586041 89.900366 140.686041 104.600366 128.786041 109.900366C 117.686041 114.900366 107.286041 123.400366 94.286041 126.800366C 88.386041 130.100366 82.586041 131.200366 78.686041 133.400366M 22.286041 76.900366C 32.486041 63.600366 49.086041 51.300366 59.886041 44.100366C 61.186041 43.300366 62.386041 42.200366 63.886041 41.800366C 69.286041 40.500366 73.686041 36.200366 79.086041 34.100366C 76.686041 25.800366 71.986041 18.300366 69.686041 10.000366C 51.886041 17.700366 33.986041 29.100366 20.686041 43.700366C 11.886041 53.300366 9.286041 62.600366 10.286041 76.900366C 11.386041 91.200366 12.186041 100.300366 20.686041 110.200366C 11.386041 100.700366 16.086041 87.700366 22.286041 76.900366"></path><path d="M 78.4599 260.218685C 58.2186 268.719685 35.9784 280.830785 20.4045 297.921585C 11.6185 307.563285 10 316.834485 10 331.156785C 10 345.479085 11.6185 354.750285 20.4045 364.391985C 12.3046 353.909785 15.0512 341.466585 22.1201 331.156785C 31.6052 317.322985 48.4673 305.028885 59.6004 298.368585C 70.0416 292.140085 81.7572 286.778785 94.0014 281.413685C 100.0999 278.716485 105.4589 276.502085 109.54 274.839385C 129.7813 266.338385 152.0215 254.227185 167.5954 237.136485C 176.3814 227.494685 177.9999 218.223585 177.9999 203.901185C 177.9999 189.578885 176.3814 180.307785 167.5954 170.665985C 175.6953 181.148185 172.9487 193.591385 165.8798 203.901185C 156.3947 217.734985 139.5326 230.029085 128.3995 236.689385C 117.9583 242.917885 106.2456 248.278685 94.0014 253.643785C 87.9029 256.340985 82.541 258.555885 78.4599 260.218685ZM 78.709501 133.42416C 58.402701 141.92516 36.090401 154.03626 20.466001 171.12706C 11.651501 180.76876 10.027801 190.03996 10.027801 204.36226C 10.027801 218.68456 11.883201 227.95576 20.697701 237.59746C 12.392001 227.14336 15.095401 214.67206 22.187201 204.36226C 31.703001 190.52846 48.619801 178.23436 59.788901 171.57406C 70.264001 165.34556 82.017501 159.98426 94.301401 154.61916C 100.419601 151.92196 105.796001 149.70756 109.890301 148.04486C 130.197201 139.54386 152.509501 127.43266 168.133801 110.34196C 176.948401 100.70016 178.572101 91.42906 178.572101 77.10666C 178.572101 62.78436 176.948401 53.51326 168.133801 43.87146C 176.260001 54.35366 173.504501 66.79686 166.412701 77.10666C 156.896901 90.94046 139.980101 103.23456 128.811001 109.89486C 118.335901 116.12336 106.585201 121.48416 94.301401 126.84926C 88.183101 129.54646 82.803801 131.76136 78.709501 133.42416ZM 22.335693 76.930801C 31.820801 63.097 48.767395 50.802902 59.90039 44.142601C 61.205597 43.364097 62.5307 42.598999 63.874176 41.845901C 68.737884 39.119301 73.843292 36.5476 79.121582 34.050903L 69.687591 10.000397C 52.093994 18.180099 33.978088 29.129196 20.704498 43.695595C 11.918487 53.337295 10.299988 62.608398 10.299988 76.930801C 10.299988 91.253097 11.918487 100.5242 20.704498 110.166C 12.604583 99.683792 15.266784 87.2406 22.335693 76.930801Z"></path></g></g></g><g id="g-root-tx_engaging_1q5q95u1dzdjii-stroke" data-item-order="0" transform="translate(16, 4)"></g><g id="g-root-90_zlbb361dzq618-stroke" data-item-order="0" transform="translate(160, 136)"><g id="90_zlbb361dzq618-stroke" fill="none" stroke-linecap="round" stroke-linejoin="round" stroke-miterlimit="4" stroke="#f4f4f4" stroke-width="2"><g><path d="M 27 32.799999C 29.200001 35.400002 33.200001 38.200001 36.799999 37C 38.599998 36.200001 40.400002 36.400002 42.200001 35.799999M 34 45C 38.599998 45 43.200001 41.200001 42.200001 36.799999C 41.200001 32.400002 38.400002 29.200001 34 28.6C 29.6 27.799999 26.4 32.200001 25.799999 36.799999C 25.200001 41.200001 29.6 45.400002 34 45M 47.599998 56.599998C 44.400002 52 39.599998 49.799999 34.200001 48.400002C 28.6 46.799999 22.4 51.400002 20.6 56.599998M 10 10M 26.799999 17.6C 27.4 17.6 27.799999 17.799999 28.200001 17.6C 29.799999 17.200001 31.200001 16.4 31.200001 14.6C 31.200001 13 29.799999 11.4 28.200001 11.6C 27.799999 11.8 27.4 11.8 26.799999 11.6C 25.200001 11.6 23.799999 13 24 14.6C 24.200001 16.4 25.200001 17.6 26.799999 17.6M 10 10M 31.200001 14.4C 31.4 16.200001 31 18.200001 31.200001 20C 31.4 21.4 30 22.200001 28.4 22.6C 28 22.799999 27.200001 22.6 26.6 22.6C 25.4 22.799999 24.6 21.799999 24 20.799999M 36.799999 14.6C 36.200001 16.200001 37 18 36.799999 19.799999C 36.400002 21.4 38 22.6 39.599998 22.6C 40.200001 22.799999 40.599998 22.6 41.200001 22.6C 42.799999 23 43.799999 21.4 44 19.799999C 44.400002 18 44.400002 16.4 44 14.6C 43.799999 13 42.799999 11.2 41.200001 11.6C 40.599998 11.8 40.200001 11.8 39.599998 11.6C 38 11.4 36.799999 13 36.799999 14.6"></path><path d="M 26.9 32.700001C 29.299999 35.299999 32.900002 36.900002 36.700001 36.900002C 38.700001 36.900002 40.5 36.5 42.099998 35.700001M 34 44.900002C 38.528801 44.900002 42.200001 41.228798 42.200001 36.700001C 42.200001 32.1712 38.528801 28.5 34 28.5C 29.471279 28.5 25.80002 32.1712 25.80002 36.700001C 25.80002 41.228798 29.471279 44.900002 34 44.900002ZM 47.5 56.5C 44.900002 51.700001 39.900002 48.299999 34.099998 48.299999C 28.299999 48.299999 23.1 51.700001 20.5 56.5M 10 10M 26.89588 17.645861L 28.27084 17.645861C 29.91618 17.64584 31.25 16.31204 31.25 14.6667C 31.25 13.021339 29.916161 11.68752 28.2708 11.687532L 26.89584 11.687544C 25.2505 11.687556 23.9167 13.02136 23.9167 14.6667C 23.9167 16.31204 25.250519 17.645861 26.89588 17.645861ZM 10 10M 31.25 14.4375L 31.25 19.9375C 31.25 21.45628 30.018801 22.6875 28.499981 22.6875L 26.66666 22.6875C 25.469299 22.6875 24.450661 21.92226 24.07316 20.85416M 36.75 14.60416L 36.75 19.770779C 36.75 21.38162 38.055801 22.687439 39.666599 22.687439L 41.166599 22.687439C 42.777401 22.687439 44.083199 21.38162 44.083199 19.770779L 44.083199 14.60416C 44.083199 12.99334 42.777401 11.6875 41.166599 11.6875L 39.666599 11.6875C 38.055801 11.6875 36.75 12.99334 36.75 14.60416Z"></path></g></g></g><g id="g-root-tx_userprof_4g2pk21dzdi4p-stroke" data-item-order="0" transform="translate(16, 148)"></g><g id="g-root-baga_5vnj61dz7w99-stroke" data-item-order="0" transform="translate(424, 136)"><g id="baga_5vnj61dz7w99-stroke" fill="none" stroke-linecap="round" stroke-linejoin="round" stroke-miterlimit="4" stroke="#f4f4f4" stroke-width="2"><g><path d="M 33 56C 31.200001 55.400002 28.799999 56.799999 27 56C 26.799999 55 26 54.400002 25 54C 24.6 51.799999 24.799999 49.400002 25 47C 25 45.799999 24.4 44.599998 23.4 44.200001C 22.200001 41.200001 20.4 38.400002 20 35C 18 37.599998 17.6 41.200001 16.6 44.200001C 15.6 44.799999 14.6 45.799999 15 47C 15.8 49.200001 14.4 51.799999 15 54C 14 54 13 55 13 56C 12.4 55.799999 11.6 56 11 56M 41 40C 41.599998 40 42.400002 40.200001 43 40C 43.200001 39 44 38.599998 45 38C 45.200001 36.799999 45 35.400002 45 34C 45 32.799999 45.599998 31.6 46.599998 31.200001C 47.599998 28.200001 48.799999 25 50 22C 50.400002 25.4 52.400002 28.200001 53.400002 31.200001C 54.200001 32 54.599998 32.799999 55 34C 55.599998 35.200001 54.799999 36.799999 55 38C 56 38 57.200001 39 57 40M 29 48C 29.200001 46.799999 29.6 45.400002 29 44C 28.6 43 29.6 41.599998 30.6 41.400002C 31.799999 39.799999 32.200001 37.799999 33 36.200001C 33.400002 38 34 40 35.400002 41.400002C 36.400002 42 37.200001 43 37 44C 36.799999 45 36.799999 46.200001 37 47C 37.200001 47.599998 37.400002 48.200001 38 48C 39 48 40 48.200001 41 48M 57 54C 57 52.799999 56.599998 51.400002 57 50C 57.400002 49 56.400002 48 55.400002 47.400002C 55 45.599998 53.400002 44 53 42.200001C 51.799999 43.599998 51.200001 45.599998 50.599998 47.400002C 49.799999 48.200001 48.599998 49 49 50C 49.400002 51 49.400002 52.200001 49 53C 48.799999 53.599998 48.599998 54 48 54C 45.799999 54.599998 43.200001 53.400002 41 54M 31.6 23.6C 31.4 24 30.799999 23.799999 30.4 23.6C 29.6 23 28.799999 22 27.799999 21.6C 26.6 21 26.200001 19.200001 26 17.6C 26 17.4 26 17.200001 26 17C 26.200001 15.2 26.799999 13.4 28.4 12.6C 30 11.8 32.200001 11.4 33.599998 12.6C 35 13.8 35.400002 15.2 36 17C 36 17.200001 36 17.4 36 17.6C 36.400002 19.200001 35.400002 20.799999 34.200001 21.6C 33.200001 22.200001 32.599998 23.200001 31.6 23.6M 17.200001 28.6C 16.799999 29 16.200001 28.799999 15.8 28.6C 15.4 28.4 15 28 14.6 27.6C 14 27 13.8 26.200001 13.6 25.200001C 13.4 25 13.4 25 13.4 24.799999C 13.8 23.799999 14 22.799999 15 22.200001C 16 21.6 17 21.799999 18 22.200001C 19 22.6 19.6 23.799999 19.6 24.799999C 19.4 25 19.6 25.200001 19.4 25.200001C 19.200001 26 19.200001 27.200001 18.4 27.6C 17.799999 27.799999 17.4 28.200001 17.200001 28.6M 16.4 31C 16.799999 31 17 31.4 17 31.6C 17 31.799999 16.799999 32 16.4 32C 16.200001 32.200001 16 31.799999 16 31.6C 16 31.4 16.200001 31 16.4 31M 29 28C 29 29.200001 30 29.799999 31 30C 32 30.4 33 29.200001 33 28C 33 27 32.200001 26.200001 31 26C 29.799999 26 28.6 27 29 28"></path><path d="M 33 56.084L 27 56.084C 27 54.979431 26.10457 54.084 25 54.084L 25 46.948002C 24.999626 45.806465 24.354794 44.762966 23.334 44.252003L 20 35.084L 16.666 44.251999C 15.644551 44.762249 14.999439 45.806202 15 46.948002L 15 54.084C 13.895431 54.084 13 54.979431 13 56.084L 11 56.084M 41 40.084L 43 40.084C 43 38.979431 43.895432 38.084 45 38.084L 45 33.947998C 44.999439 32.806198 45.644554 31.762249 46.666 31.252001L 50 22.084L 53.334 31.252001C 54.354794 31.762966 54.999626 32.806465 55 33.947998L 55 38.084C 56.104568 38.084 57 38.979431 57 40.084M 29 48.084L 29 44.084C 28.999727 42.942787 29.644867 41.899567 30.666 41.389999L 33 36.222L 35.334 41.400002C 36.354477 41.910282 36.999336 42.953053 37 44.093998L 37 47.094002C 37 47.646286 37.447716 48.094002 38 48.094002L 41 48.094002M 57 54.084L 57 50.084C 56.999332 48.94305 56.354473 47.900284 55.334 47.389999L 53 42.222L 50.666 47.400002C 49.644867 47.909565 48.999729 48.952785 49 50.094002L 49 53.094002C 49 53.646286 48.552284 54.094002 48 54.094002L 41 54.094002M 31.624001 23.584C 31.259043 23.875435 30.740957 23.875435 30.375999 23.584L 27.875999 21.584C 26.690762 20.635548 26.000584 19.200008 26 17.681999L 26 16.916C 25.999912 15.159399 26.921625 13.531596 28.427999 12.628L 28.427999 12.628C 30.011175 11.678336 31.988827 11.678336 33.571999 12.628L 33.571999 12.628C 35.078377 13.531596 36.000088 15.159399 36 16.916L 36 17.681999C 36.000023 19.20071 35.309784 20.637112 34.124001 21.586ZM 17.124001 28.584C 16.759041 28.875435 16.240959 28.875435 15.875999 28.584L 14.625999 27.584C 13.914489 27.014833 13.500205 26.153152 13.5 25.242001L 13.5 24.784C 13.499357 23.729774 14.052115 22.752575 14.956 22.209999L 14.955999 22.209999C 15.906301 21.639561 17.093699 21.639561 18.044001 22.209999L 18.043999 22.209999C 18.947884 22.752575 19.500643 23.729774 19.5 24.784L 19.5 25.242001C 19.500404 26.153854 19.08606 27.016396 18.374001 27.586ZM 16.5 31.084C 16.776142 31.084 17 31.307858 17 31.584C 17 31.860142 16.776142 32.084 16.5 32.084C 16.223858 32.084 16 31.860142 16 31.584C 16 31.307858 16.223858 31.084 16.5 31.084M 29 28.084C 29 29.18857 29.89543 30.084 31 30.084C 32.104568 30.084 33 29.18857 33 28.084C 33 26.979431 32.104568 26.084 31 26.084C 29.89543 26.084 29 26.979431 29 28.084Z"></path></g></g></g><g id="g-root-tx_questsch_i0wc821dzc554-stroke" data-item-order="0" transform="translate(484, 136)"></g><g id="g-root-tx_progress_zs6cpu1dzc2rz-stroke" data-item-order="0" transform="translate(52, 268)"></g><g id="g-root-stop_1luwmw21dzlyq2-stroke" data-item-order="0" transform="translate(160, 268)"><g id="stop_1luwmw21dzlyq2-stroke" fill="none" stroke-linecap="round" stroke-linejoin="round" stroke-miterlimit="4" stroke="#f4f4f4" stroke-width="2"><g><path d="M 10 10M 33.799999 23.799999C 32.200001 24.6 30.6 25.200001 29 26C 27.799999 26.799999 26.200001 27.200001 25.4 28C 23.4 29.200001 20.200001 29 19.200001 27C 18.4 26 17.200001 25.200001 17 24C 16.4 22.6 13.8 22.6 12.8 23.6C 11.6 24.799999 11 27 12.4 28C 13.2 28.6 13.6 30 14.6 30.799999C 17.200001 32.799999 20 34.599998 23.200001 34.799999C 25 34.799999 26.4 34 28.200001 33.599998C 28.4 33.400002 28.799999 33.200001 29.200001 33C 30 34.799999 31.200001 36.400002 32.200001 38.400002C 31.200001 38.599998 30.200001 38.400002 29.4 39C 27 39.599998 24.4 41.200001 24.4 43.599998C 23.6 46 23.6 49 25.799999 50.400002C 27.200001 52 28.799999 53.599998 30.4 55.400002C 30.799999 56 31.799999 56 32.599998 56.400002C 33.200001 56.599998 34 56.200001 34.599998 55.599998C 35.599998 54.200001 35.599998 52.599998 34.799999 51.400002C 32.799999 50.200001 31.6 48 30.200001 46.400002C 30 46 29.6 45.599998 30 45.400002C 30.200001 45 30.4 44.799999 30.6 44.599998C 31.799999 44.799999 33.200001 43.599998 34.599998 44C 34.799999 43.799999 35.400002 43.799999 35.599998 43.599998C 40.400002 47.400002 44.799999 51.799999 49.599998 55.799999C 50.200001 56 50.799999 56.599998 51.599998 56.599998C 52.400002 56.400002 53 56 53.799999 55.599998C 55 54.599998 55 51.799999 53.400002 51.400002C 44.400002 43.799999 40.200001 39.200001 34.200001 30.200001M 47.400002 31.4C 51.799999 31.799999 55 27.799999 55.400002 23.4C 55.599998 19 51.799999 15.8 47.400002 15.4C 43 15.2 38.200001 19.200001 39.400002 23.4C 40.400002 27.799999 43.200001 30.200001 47.400002 31.4M 47.400002 23.4C 46.599998 23 46 22.200001 45.400002 21.4M 47.400002 15.4C 47.599998 14.2 47.200001 12.8 47.400002 11.4M 44.400002 11.4C 46.200001 12 48.400002 12 50.400002 11.4M 38.400002 16.4C 39 17.4 40 18.200001 40.799999 19M 53.799999 19C 55 18.4 55.200001 17 56.400002 16.6M 25.4 23.6C 28.6 23 32.400002 20.799999 31.4 17.6C 30.200001 14.6 28.6 11.2 25.4 11.6C 22 12 18.200001 14.6 19.4 17.6C 20.4 20.799999 22.200001 24.799999 25.4 23.6"></path><path d="M 10 10M 33.720001 23.700001L 28.92 26.1L 25.32 28.1C 23.32 29.1 20.720001 28.700001 19.119999 26.9L 16.92 24.1C 15.92 22.9 13.92 22.700001 12.72 23.700001C 11.52 24.700001 11.32 26.700001 12.32 27.9L 14.52 30.700001C 16.719999 33.299999 19.92 34.700001 23.119999 34.700001C 24.92 34.700001 26.52 34.299999 28.120001 33.5L 29.120001 32.900002L 32.120003 38.299999L 29.32 38.900002C 26.92 39.5 25.119999 41.299999 24.32 43.5C 23.52 45.900002 24.119999 48.299999 25.720001 50.299999L 30.32 55.299999C 30.92 55.900002 31.719999 56.299999 32.52 56.299999C 33.32 56.299999 33.919998 56.099998 34.52 55.5C 35.720001 54.299999 35.720001 52.5 34.720001 51.299999L 30.120001 46.299999C 29.92 46.099998 29.719999 45.700001 29.92 45.299999C 30.120001 44.900002 30.32 44.700001 30.52 44.700001L 34.52 43.900002C 34.919998 43.900002 35.32 43.700001 35.52 43.5L 49.52 55.700001C 50.119999 56.099998 50.720001 56.5 51.52 56.5C 52.32 56.5 53.119999 56.099998 53.720001 55.5C 54.720001 54.299999 54.720001 52.299999 53.32 51.299999C 44.476002 43.636002 39.416 39.716 34.120003 30.299999M 47.32 31.5C 51.738277 31.5 55.32 27.918278 55.32 23.5C 55.32 19.081722 51.738277 15.5 47.32 15.5C 42.901722 15.5 39.32 19.081722 39.32 23.5C 39.32 27.918278 42.901722 31.5 47.32 31.5ZM 47.32 23.5L 45.32 21.5M 47.32 15.5L 47.32 11.5M 44.32 11.5L 50.32 11.5M 38.32 16.5L 40.812 18.906M 53.844002 18.906L 56.32 16.5M 25.32 23.656C 28.633709 23.656 31.32 20.969707 31.32 17.656C 31.32 14.342292 28.633709 11.656 25.32 11.656C 22.006292 11.656 19.32 14.342292 19.32 17.656C 19.32 20.969707 22.006292 23.656 25.32 23.656Z"></path></g></g></g><g id="g-root-rati_1qduig21dz7wua-stroke" data-item-order="0" transform="translate(424, 268)"><g id="rati_1qduig21dz7wua-stroke" fill="none" stroke-linecap="round" stroke-linejoin="round" stroke-miterlimit="4" stroke="#f4f4f4" stroke-width="2"><g><path d="M 35 11.6C 35.400002 13.2 35.799999 14.8 37 16C 38.200001 15.6 39.599998 16 41 16C 41.400002 16 41.799999 16.200001 41.799999 16.6C 41.799999 17 42 17.4 41.599998 17.799999C 40.200001 18.4 39.599998 20.200001 38.200001 21.200001C 38.200001 22.799999 39.599998 24.200001 40.200001 25.6C 40.400002 26 40.200001 26.4 40 26.799999C 39.799999 27.200001 39 27.200001 38.799999 26.799999C 37.400002 25.6 35.599998 25.200001 34 24.200001C 32.599998 25.200001 30.799999 25.799999 29.4 26.799999C 29 27.200001 28.4 27 28.200001 26.799999C 27.799999 26.4 27.6 26 27.799999 25.6C 28.6 24 29.6 22.799999 29.799999 21.200001C 28.6 20 27.6 18.799999 26.4 17.799999C 26 17.4 25.799999 17 26 16.6C 26.200001 16.4 26.6 16 27 16C 28.4 16.200001 29.799999 16.4 31 16C 31.799999 14.6 32.799999 13.2 33 11.6C 33 11.2 33.599998 11 34 11C 34.400002 10.8 34.799999 11.2 35 11.6M 24.4 28C 24.200001 28.6 23.4 28.6 23.200001 29.200001C 24.4 30.4 24.799999 32 25.200001 33.599998C 25.4 34 25.4 34.599998 25 34.799999C 24.6 35 24.200001 35 23.799999 34.799999C 22 34.599998 20.200001 33.599998 19 32.200001C 17.4 32.799999 15.8 33.799999 14.4 34.799999C 14 35.200001 13.4 35 13.2 34.799999C 12.8 34.400002 12.8 34 12.8 33.599998C 13.2 32 14.4 30.6 14.8 29.200001C 14 27.799999 12.6 26.799999 11.4 25.799999C 11 25.4 11 25 11 24.6C 11.2 24.200001 11.6 23.799999 12 24C 13.2 24.6 14.6 24.4 16 24C 17 22.799999 17.4 21 18 19.6C 18.200001 19.200001 18.6 19 19 19C 19.4 19 19.799999 19.200001 19.799999 19.6C 20 21.200001 21 22.799999 22 24C 22.6 24 23.4 24 24 24M 43.599998 28C 44 28.200001 44.400002 28.799999 44.799999 29.200001C 44.200001 30.6 43.400002 32.200001 42.799999 33.599998C 42.599998 34 42.799999 34.400002 43 34.799999C 43.400002 35 43.799999 35 44.200001 34.799999C 46 34.400002 47.400002 33 49 32.200001C 50.599998 32.799999 52 34 53.599998 34.799999C 54 35.200001 54.599998 35.200001 54.799999 34.799999C 55 34.400002 55.200001 34 55 33.599998C 54.200001 32.200001 53.799999 30.6 53 29.200001C 54.400002 28.200001 55.400002 26.799999 56.599998 25.799999C 56.799999 25.4 57 25 56.799999 24.6C 56.599998 24.4 56.400002 24 56 24C 54.799999 23.6 53.200001 24.4 52 24C 51.599998 22.4 50 21.200001 50 19.6C 50 19.200001 49.400002 19 49 19C 48.599998 19 48.200001 19.200001 48.200001 19.6C 47.400002 21 46.799999 22.6 46 24C 45.400002 24.200001 44.599998 24.200001 44 24M 21 44C 21.6 46.599998 20.799999 49.400002 21 52M 25 48C 22.4 47.400002 19.6 47.599998 17 48M 45.599998 43.599998C 45.799999 43.599998 46 43.799999 46 44M 45 44C 45 43.799999 45.200001 43.599998 45.599998 43.599998M 45.599998 44.599998C 45.200001 44.400002 45 44.200001 45 44M 46 44C 46 44.200001 45.799999 44.599998 45.599998 44.599998M 41.599998 47.599998C 41.799999 47.599998 42 47.799999 42 48M 41 48C 41 47.799999 41.200001 47.599998 41.599998 47.599998M 41.599998 48.599998C 41.200001 48.599998 41 48.200001 41 48M 42 48C 42 48.200001 41.799999 48.599998 41.599998 48.599998M 45.599998 51.599998C 45.799999 51.599998 46 51.799999 46 52M 45 52C 45 51.799999 45.200001 51.400002 45.599998 51.599998M 45.599998 52.599998C 45.200001 52.400002 45 52.200001 45 52M 46 52C 46 52.200001 45.799999 52.599998 45.599998 52.599998M 49.599998 47.599998C 49.799999 47.400002 50 47.799999 50 48M 49 48C 49 47.799999 49.200001 47.400002 49.599998 47.599998M 49.599998 48.599998C 49.200001 48.599998 49 48.200001 49 48M 50 48C 50 48.200001 49.799999 48.599998 49.599998 48.599998M 15 39C 27.6 40.400002 40.400002 40.799999 53 39C 53 39 54.599998 39 55 41C 56.200001 45.599998 55.799999 50.400002 55 55C 55 55 55 57.400002 53 57C 40.599998 54.599998 27.6 58.599998 15 57C 15 57 12.6 57 13 55C 14 50.400002 13.6 45.599998 13 41C 13 41 13 38.799999 15 39"></path><path d="M 34.919998 11.58L 36.919998 16L 40.919998 16C 41.339638 15.974432 41.728828 16.219368 41.887306 16.60877C 42.045784 16.998173 41.938232 17.445272 41.620003 17.720001L 38.200001 21.139999L 40.200001 25.540001C 40.385727 25.953758 40.281914 26.440165 39.943443 26.742043C 39.604973 27.043921 39.109909 27.091652 38.719997 26.859999L 34 24.24L 29.34 26.860001C 28.947912 27.078482 28.460724 27.026329 28.123768 26.729807C 27.78681 26.433285 27.67314 25.95668 27.839998 25.539999L 29.84 21.139999L 26.299999 17.719999C 25.985399 17.447498 25.877243 17.006002 26.030268 16.618942C 26.18329 16.231884 26.564108 15.983704 26.98 16L 30.98 16L 32.98 11.58C 33.134956 11.179285 33.520367 10.9151 33.949997 10.9151C 34.379631 10.9151 34.765041 11.179285 34.919998 11.58ZM 24.4 28L 23.24 29.139999L 25.24 33.559998C 25.406857 33.976681 25.293188 34.453285 24.95623 34.749809C 24.619274 35.046329 24.132084 35.09848 23.739998 34.879997L 19.02 32.239998L 14.360001 34.860001C 13.970091 35.091652 13.475025 35.043922 13.136556 34.742043C 12.798086 34.440163 12.694271 33.953758 12.88 33.540001L 14.88 29.120001L 11.32 25.720001C 11.0054 25.447498 10.897243 25.006002 11.050267 24.618942C 11.203291 24.231884 11.584108 23.983704 12 24L 16 24L 18 19.560001C 18.182598 19.209633 18.544905 18.989899 18.939999 18.989899C 19.335094 18.989899 19.697399 19.209633 19.879999 19.559999L 22 24L 24 24M 43.599998 28L 44.759998 29.139999L 42.759998 33.559998C 42.59314 33.976681 42.70681 34.453285 43.043766 34.749809C 43.380722 35.046329 43.867912 35.09848 44.259998 34.879997L 48.900002 32.260002L 53.560001 34.879997C 53.949905 35.111649 54.444973 35.063919 54.78344 34.762039C 55.12191 34.460163 55.225727 33.973759 55.039997 33.559998L 53.040001 29.139999L 56.52 25.74C 56.83115 25.490406 56.959972 25.077129 56.845757 24.694946C 56.731541 24.312763 56.397079 24.037939 56 24L 52 24L 50 19.560001C 49.817398 19.209633 49.455093 18.989899 49.059998 18.989899C 48.664902 18.989899 48.302597 19.209633 48.119999 19.559999L 46 24L 44 24M 21 44L 21 52M 25 48L 17 48M 45.5 43.5C 45.776142 43.5 46 43.723858 46 44M 45 44C 45 43.723858 45.223858 43.5 45.5 43.5M 45.5 44.5C 45.223858 44.5 45 44.276142 45 44M 46 44C 46 44.276142 45.776142 44.5 45.5 44.5M 41.5 47.5C 41.776142 47.5 42 47.723858 42 48M 41 48C 41 47.723858 41.223858 47.5 41.5 47.5M 41.5 48.5C 41.223858 48.5 41 48.276142 41 48M 42 48C 42 48.276142 41.776142 48.5 41.5 48.5M 45.5 51.5C 45.776142 51.5 46 51.723858 46 52M 45 52C 45 51.723858 45.223858 51.5 45.5 51.5M 45.5 52.5C 45.223858 52.5 45 52.276142 45 52M 46 52C 46 52.276142 45.776142 52.5 45.5 52.5M 49.5 47.5C 49.776142 47.5 50 47.723858 50 48M 49 48C 49 47.723858 49.223858 47.5 49.5 47.5M 49.5 48.5C 49.223858 48.5 49 48.276142 49 48M 50 48C 50 48.276142 49.776142 48.5 49.5 48.5M 15 39L 53 39C 53 39 55 39 55 41L 55 55C 55 55 55 57 53 57L 15 57C 15 57 13 57 13 55L 13 41C 13 41 13 39 15 39"></path></g></g></g><g id="g-root-tx_gamifica_1lyne8y1dzc3k6-stroke" data-item-order="0" transform="translate(484, 268)"></g><g id="g-root-tx_communit_4o6voi1dzc4jx-stroke" data-item-order="0" transform="translate(4, 400)"></g><g id="g-root-firs_18f2pr61dzdipv-stroke" data-item-order="0" transform="translate(160, 400)"><g id="firs_18f2pr61dzdipv-stroke" fill="none" stroke-linecap="round" stroke-linejoin="round" stroke-miterlimit="4" stroke="#f4f4f4" stroke-width="2"><g><path d="M 56 44.599998C 51 44.400002 46 45.200001 41 44.599998C 42.200001 41.400002 42 37.599998 41 34.599998C 40.799999 34 40.599998 33.400002 40 33.599998C 36 34 31.799999 32.599998 28 33.599998C 27.4 33.599998 26.799999 34 27 34.599998C 27.6 37.799999 27.6 41.200001 27 44.599998C 22.200001 43.400002 16.799999 43.200001 12 44.599998C 11.4 44.599998 11 45 11 45.599998C 10.8 48.799999 10.6 52.200001 11 55.599998C 11 56 11.4 56.400002 12 56.599998C 26 60.799999 41.400002 58 56 56.599998C 56.599998 56.400002 56.799999 56 57 55.599998C 58 52.400002 58 48.599998 57 45.599998C 56.799999 45 56.599998 44.599998 56 44.599998M 25 28.6C 24.6 27.4 25.200001 26.200001 25.799999 25.4C 26.4 24.4 28.799999 23.799999 31.6 22.4C 32.200001 22 32.200001 20.4 31.799999 19.799999C 30.799999 18.6 30 17 30.4 15.4C 30.200001 14 31 12.8 32 12C 33.200001 11.2 34.599998 11.6 36 12C 37.200001 12.4 37.200001 14 37.599998 15.4C 38 17 37 18.4 36.200001 19.799999C 36 20.4 35.799999 22 36.400002 22.4C 39.200001 23.799999 42 24.200001 42.200001 25.4C 42.400002 26.4 43 27.4 43 28.4M 21.4 38.599998C 20.6 38.200001 19.6 37.799999 18.4 37.400002C 17.6 37 17.799999 35.200001 18.200001 34.799999C 19.6 34 19.6 32 19.6 30.4C 19.6 29.4 19.200001 28.6 18.799999 27.6C 18.4 26.6 17 26.4 16 26.4C 15 26.6 13.6 26.6 13.2 27.6C 12.8 28.6 12.4 29.4 12.4 30.4C 12.2 32 12.6 33.799999 13.8 34.799999C 14.2 35.200001 14.4 37.400002 13.6 37.400002C 12.6 37.400002 11.6 37.799999 11 38.400002M 46.599998 38.599998C 47.400002 38.200001 48.599998 37.799999 49.599998 37.400002C 50.200001 37 50.200001 35.200001 49.799999 34.799999C 48.799999 33.599998 48.799999 32 48.400002 30.4C 47.799999 29.200001 48.799999 27.200001 50 27C 51.400002 26.799999 52.599998 26.4 54 27C 55.200001 27.6 55.200001 29.200001 55.599998 30.4C 56.200001 32 55 33.599998 54.200001 34.799999C 53.799999 35.400002 53.799999 37 54.400002 37.400002C 55.200001 38 56.200001 38.200001 57 38.400002"></path><path d="M 56 44.5L 41 44.5L 41 34.5C 41 33.947716 40.552284 33.5 40 33.5L 28 33.5C 27.447716 33.5 27 33.947716 27 34.5L 27 44.5L 12 44.5C 11.447716 44.5 11 44.947716 11 45.5L 11 55.5C 11 56.052284 11.447716 56.5 12 56.5L 56 56.5C 56.552284 56.5 57 56.052284 57 55.5L 57 45.5C 57 44.947716 56.552284 44.5 56 44.5ZM 25 28.5C 25.037304 27.399389 25.302919 26.318539 25.780001 25.326C 26.332001 24.222 28.636 23.458 31.530001 22.386C 32.312 22.096001 32.186001 20.27 31.837999 19.889999C 30.723297 18.679752 30.17765 17.051544 30.338001 15.414C 30.241932 14.044777 30.917946 12.736391 32.090294 12.022532C 33.262646 11.308671 34.735355 11.308671 35.907707 12.022532C 37.080055 12.736391 37.756069 14.044777 37.66 15.414C 37.820351 17.051544 37.274704 18.679752 36.160004 19.889999C 35.813999 20.271999 35.686001 22.09 36.468002 22.386C 39.362 23.458 41.667999 24.222 42.217999 25.326C 42.696102 26.318268 42.962418 27.399197 43 28.5M 21.424 38.5C 20.563999 38.148003 19.554001 37.788002 18.466 37.384003C 17.684 37.094002 17.809999 35.267998 18.158001 34.888C 19.272705 33.67775 19.81835 32.049545 19.658001 30.412001C 19.753895 29.392387 19.408535 28.380524 18.709263 27.632311C 18.009987 26.8841 17.02376 26.471186 16 26.497999C 14.975552 26.47002 13.988233 26.882423 13.28806 27.630777C 12.587888 28.379133 12.242005 29.391674 12.337999 30.411999C 12.17765 32.049545 12.723296 33.67775 13.838 34.888C 14.184 35.27 14.312 37.087997 13.53 37.384003C 12.614 37.722 11.76 38.031998 11 38.330002M 46.57 38.5C 47.43 38.148003 48.439999 37.788002 49.528 37.384003C 50.310001 37.094002 50.183998 35.267998 49.835999 34.888C 48.721298 33.67775 48.175652 32.049545 48.336002 30.412001C 48.239933 29.042778 48.915947 27.734392 50.088295 27.020531C 51.260647 26.306671 52.733356 26.306671 53.905704 27.020531C 55.078056 27.734392 55.75407 29.042778 55.658001 30.412001C 55.818352 32.049545 55.272705 33.67775 54.158001 34.888C 53.812 35.27 53.683998 37.087997 54.466 37.384003C 55.382 37.722 56.236 38.031998 56.998001 38.330002"></path></g></g></g></g></g></svg>