<?xml version="1.0" encoding="utf-8" standalone="yes"?>
<!DOCTYPE svg PUBLIC "-//W3C//DTD SVG 1.1//EN" "http://www.w3.org/Graphics/SVG/1.1/DTD/svg11.dtd">
<svg width="700" height="556" viewBox="0 0 700 556" style="fill:none;stroke:none;fill-rule:evenodd;clip-rule:evenodd;stroke-linecap:round;stroke-linejoin:round;stroke-miterlimit:1.5;" version="1.1" xmlns="http://www.w3.org/2000/svg" xmlns:xlink="http://www.w3.org/1999/xlink"><style class="text-font-style fontImports" data-font-family="Shantell Sans">@import url('https://fonts.googleapis.com/css2?family=Shantell+Sans:wght@300..800&amp;display=block');</style><g id="items" style="isolation: isolate"><g id="blend" style="mix-blend-mode: normal"><g id="g-root--1.cu_sy_v7dbch1e9fwga-fill" data-item-order="999903239" transform="translate(328, 112)"></g><g id="g-root-4.line_sy_dg3aup1e9fytf-fill" data-item-order="999903245" transform="translate(244, 339)"></g><g id="g-root-3.line_sy_4l2rox1e9fwgc-fill" data-item-order="999903251" transform="translate(244.109375, 316)"></g><g id="g-root-2.line_sy_599kh1e9fx8l-fill" data-item-order="999903257" transform="translate(244, 262)"></g><g id="g-root-1.line_sy_1qaqbap1e9fxu6-fill" data-item-order="999903263" transform="translate(244, 178)"></g><g id="g-root-tx_building_1upwdkh1ejpds1-fill" data-item-order="1000000000" transform="translate(106, 28)"><g id="tx_building_1upwdkh1ejpds1-fill" stroke="none" fill="#f4f4f4"><g><text style="font: bold 25px &quot;Shantell Sans&quot;, cursive; white-space: pre;" font-weight="bold" font-size="25px" font-family="'Shantell Sans', cursive"><tspan x="14.63" y="45" dominant-baseline="ideographic">Building a Professional Digital Presence</tspan></text></g></g></g><g id="g-root-tx_homepage_hv9d4h1ejpdzj-fill" data-item-order="1000000000" transform="translate(52, 166)"><g id="tx_homepage_hv9d4h1ejpdzj-fill" stroke="none" fill="#f4f4f4"><g><text style="font: 20px &quot;Shantell Sans&quot;, cursive; white-space: pre;" font-size="20px" font-family="'Shantell Sans', cursive"><tspan x="19.95" y="35" dominant-baseline="ideographic">Home Page</tspan></text></g></g></g><g id="g-root-clic_4o66cx1ej72fb-fill" data-item-order="1000000000" transform="translate(184, 154)"></g><g id="g-root-tx_projects_1hd6x0x1ejpd6t-fill" data-item-order="1000000000" transform="translate(88, 238)"><g id="tx_projects_1hd6x0x1ejpd6t-fill" stroke="none" fill="#f4f4f4"><g><text style="font: 20px &quot;Shantell Sans&quot;, cursive; white-space: pre;" font-size="20px" font-family="'Shantell Sans', cursive"><tspan x="15.78" y="35" dominant-baseline="ideographic">Projects </tspan><tspan x="22.5" y="59" dominant-baseline="ideographic">Section</tspan></text></g></g></g><g id="g-root-plan_959y291e9fx8r-fill" data-item-order="1000000000" transform="translate(184, 238)"></g><g id="g-root-acco_1czwa0h1e9fw9b-fill" data-item-order="1000000000" transform="translate(508, 280)"></g><g id="g-root-tx_personal_8x4gj51ejpb7r-fill" data-item-order="1000000000" transform="translate(568, 268)"><g id="tx_personal_8x4gj51ejpb7r-fill" stroke="none" fill="#f4f4f4"><g><text style="font: 20px &quot;Shantell Sans&quot;, cursive; white-space: pre;" font-size="20px" font-family="'Shantell Sans', cursive"><tspan x="12" y="35" dominant-baseline="ideographic">Personal </tspan><tspan x="12" y="59" dominant-baseline="ideographic">Portfolio </tspan><tspan x="12" y="83" dominant-baseline="ideographic">Website</tspan></text></g></g></g><g id="g-root-tx_skillste_2qegh1ejpe6j-fill" data-item-order="1000000000" transform="translate(40, 322)"><g id="tx_skillste_2qegh1ejpe6j-fill" stroke="none" fill="#f4f4f4"><g><text style="font: 20px &quot;Shantell Sans&quot;, cursive; white-space: pre;" font-size="20px" font-family="'Shantell Sans', cursive"><tspan x="71.2" y="35" dominant-baseline="ideographic">Skills &amp; </tspan><tspan x="16.6" y="59" dominant-baseline="ideographic">Technologies</tspan></text></g></g></g><g id="g-root-code_4o7hrl1e9fvuw-fill" data-item-order="1000000000" transform="translate(184, 322)"></g><g id="g-root-tx_contactp_zknycx1ejpddt-fill" data-item-order="1000000000" transform="translate(40, 418)"><g id="tx_contactp_zknycx1ejpddt-fill" stroke="none" fill="#f4f4f4"><g><text style="font: 20px &quot;Shantell Sans&quot;, cursive; white-space: pre;" font-size="20px" font-family="'Shantell Sans', cursive"><tspan x="12.12" y="35" dominant-baseline="ideographic">Contact Page</tspan></text></g></g></g><g id="g-root-link_18egrld1e9mznp-fill" data-item-order="1000000000" transform="translate(184, 406)"></g><g id="g-root--1.cu_sy_v7dbch1e9fwga-stroke" data-item-order="999903239" transform="translate(328, 112)"><g id="-1.cu_sy_v7dbch1e9fwga-stroke" fill="none" stroke-linecap="round" stroke-linejoin="round" stroke-miterlimit="4" stroke="#ffffff" stroke-width="2"><g><path d="M 65.8 394C 70.7 394.7 77 384.7 82.7 368.2C 88.4 352 95.1 329.2 98.5 301.6C 102 272.4 106.9 238.5 106 202C 105.2 166.8 103.9 133.7 98.9 105.4C 94.2 78.3 91 54.6 83.7 38.7C 75.7 21.2 71 10.7 65.8 10C 68.6 10.3 72 12.9 74 19C 76.1 25.4 80.3 34.1 81.6 45.8C 82.8 57.2 84.7 70.7 87.4 85.9C 90.1 101.2 90.6 118.5 91.3 137C 92.2 157.3 92.8 179.2 92.9 202C 93.1 224.6 92.3 246.3 91.4 266.5C 90.5 285.7 87.5 303.4 87.3 319.3C 87 334.5 84.9 348 81.4 358.8C 77.9 369.9 76.6 379.2 73.9 385.3C 71.3 390.9 68.6 393.9 65.8 394M 65.8 394C 71.1 395.2 77.8 382.7 80.6 362.7C 83.2 344.4 88.8 319.7 89.9 290.3C 90.9 263.8 91.6 233.8 92.9 202C 94.3 168.6 90 137.1 89.6 109.6C 89.2 82.7 83.8 59.9 80.9 42.7C 77.4 21.9 71.3 9.3 65.8 10C 61.2 10.6 56.5 9.3 52 10C 55.4 11.8 58.1 18.4 61.8 28.4C 65.5 38.4 68.2 52.6 69.7 69.6C 71.3 86.9 72.7 107.1 75.2 129.2C 77.7 151.6 77.3 176.3 77.2 202C 77.1 233.3 74.9 262.9 74.1 289.1C 73.3 317.3 69.2 341.4 65.2 359.3C 60.9 379 56.1 391.1 51.3 394C 56 394.9 60.9 393.9 65.8 394M 77.2 202C 78.5 233.3 76.1 263 74.1 289.2C 71.9 317.7 68.8 342.1 65 360.3C 61 379.4 56.5 392.1 51.3 394C 50.9 394 50.5 394 50.1 394C 47 393.9 43 390.8 40 384C 36.8 376.7 30.5 367 28.4 353.4C 26.6 341 23.2 326.7 19 310.8C 15.2 296.5 14.7 280.1 12.7 262.9C 10.6 243.8 9.6 223.3 10 202C 10.6 164.3 13.3 129.1 17.9 99.5C 22.5 70 29.4 46.2 35.2 30.4C 40.1 17.2 45.8 10.9 50.1 10C 50.7 9.9 52 10 52 10C 56.8 12.5 62.3 23.7 65.2 42.1C 67.9 60.2 72.9 84.5 74.1 113.3C 75.3 139.9 77.5 170 77.2 202"></path><path d="M 65.766602 394C 80.754802 394 106.000002 308.0387 106.000002 202C 106.000002 95.9613 80.754802 10 65.766602 10C 80.775202 10.01 92.941702 96.2224 92.941702 202C 92.941702 307.7776 80.775202 393.99 65.766602 394ZM 65.765897 394C 80.774597 393.99 92.941097 307.7776 92.941097 202C 92.941097 96.2224 80.774597 10.01 65.765897 10L 51.957397 10C 66.060697 16.8878 77.199297 100.4719 77.199297 202C 77.199297 303.5282 65.382597 387.1122 51.279297 394L 65.765897 394ZM 77.2 202C 77.2 303.5282 65.3833 387.1122 51.28 394L 50.0615 394C 35.0734 394 10 308.0387 10 202C 10 95.9613 35.0734 10 50.0615 10C 50.6991 10 51.9581 10 51.9581 10C 66.0614 16.8878 77.2 100.4719 77.2 202Z"></path></g></g></g><g id="g-root-4.line_sy_dg3aup1e9fytf-stroke" data-item-order="999903245" transform="translate(244, 339)"><g id="4.line_sy_dg3aup1e9fytf-stroke" fill="none" stroke-linecap="round" stroke-linejoin="round" stroke-miterlimit="4" stroke="#ffffff" stroke-width="2"><g><path d="M 260.4 11.140015C 245.5 23.440015 229.6 34.640015 212.8 43.940015C 198.5 51.840015 187 64.040015 172.6 71.640015C 157.3 79.640015 144.6 91.840015 130 101.040015C 116.5 101.240015 103 102.140015 89.6 101.040015C 75.1 99.740015 60.5 101.640015 45.9 101.040015C 34 100.540015 21.9 99.940015 10 101.040015"></path><path d="M 260.35 11.140015L 130 101.000015L 10 101.000015"></path><path d="M 259.1 19.940015C 259.2 16.840015 259.6 13.640015 260.8 10.840015C 257.9 9.740015 254.5 10.340015 251.7 9.140015" stroke-dasharray="none"></path><path d="M 259.1 19.940015L 260.8 10.840015L 251.7 9.140015" stroke-dasharray="none"></path></g></g></g><g id="g-root-3.line_sy_4l2rox1e9fwgc-stroke" data-item-order="999903251" transform="translate(244.109375, 316)"><g id="3.line_sy_4l2rox1e9fwgc-stroke" fill="none" stroke-linecap="round" stroke-linejoin="round" stroke-miterlimit="4" stroke="#ffffff" stroke-width="2"><g><path d="M 250.00061 10.47998C 228.20061 14.67998 207.20061 22.57998 185.30061 26.37998C 166.60061 29.57998 148.70061 36.97998 129.90061 39.97998C 108.80061 40.37998 87.60061 41.67998 66.60061 39.97998C 47.80061 38.47998 28.90061 40.37998 10.00061 39.97998"></path><path d="M 249.95061 10.47998L 129.89061 39.99998L 10.00061 39.99998"></path><path d="M 245.70061 18.17998C 247.90061 16.17998 248.10061 12.37998 250.40061 10.37998C 248.00061 8.47998 244.80061 7.67998 242.60061 5.57998" stroke-dasharray="none"></path><path d="M 245.70061 18.17998L 250.40061 10.37998L 242.60061 5.57998" stroke-dasharray="none"></path></g></g></g><g id="g-root-2.line_sy_599kh1e9fx8l-stroke" data-item-order="999903257" transform="translate(244, 262)"><g id="2.line_sy_599kh1e9fx8l-stroke" fill="none" stroke-linecap="round" stroke-linejoin="round" stroke-miterlimit="4" stroke="#ffffff" stroke-width="2"><g><path d="M 250.1 39.5C 230.9 34.4 211.6 29.3 192.2 25.3C 171.3 20.9 150.8 14.8 130 10C 109.7 9.5 89.3 9.3 68.9 10C 49.3 10.7 29.6 10.9 10 10"></path><path d="M 250.06 39.52L 130 10L 10 10"></path><path d="M 242.7 44.4C 245.5 43.1 248.2 41.6 250.5 39.6C 248.4 37.5 247.6 34.2 245.8 31.8" stroke-dasharray="none"></path><path d="M 242.7 44.4L 250.5 39.6L 245.8 31.8" stroke-dasharray="none"></path></g></g></g><g id="g-root-1.line_sy_1qaqbap1e9fxu6-stroke" data-item-order="999903263" transform="translate(244, 178)"><g id="1.line_sy_1qaqbap1e9fxu6-stroke" fill="none" stroke-linecap="round" stroke-linejoin="round" stroke-miterlimit="4" stroke="#ffffff" stroke-width="2"><g><path d="M 260.4 99.9C 239 85 217.7 70.1 196.1 55.6C 173.9 40.6 153 23.6 130 10C 116.6 10.5 103.1 9.2 89.7 10C 75.9 10.8 62 9.9 48.2 10C 35.4 10.1 22.6 8.2 10 10"></path><path d="M 260.35 99.86L 130 10L 10 10"></path><path d="M 251.7 101.8C 254.8 101.4 257.8 100.9 260.8 100.1C 259.5 97.3 260.5 93.8 259.1 91.1" stroke-dasharray="none"></path><path d="M 251.7 101.8L 260.8 100.1L 259.1 91.1" stroke-dasharray="none"></path></g></g></g><g id="g-root-tx_building_1upwdkh1ejpds1-stroke" data-item-order="1000000000" transform="translate(106, 28)"></g><g id="g-root-tx_homepage_hv9d4h1ejpdzj-stroke" data-item-order="1000000000" transform="translate(52, 166)"></g><g id="g-root-clic_4o66cx1ej72fb-stroke" data-item-order="1000000000" transform="translate(184, 154)"><g id="clic_4o66cx1ej72fb-stroke" fill="none" stroke-linecap="round" stroke-linejoin="round" stroke-miterlimit="4" stroke="#f4f4f4" stroke-width="2"><g><path d="M 55 57C 55.599998 55.400002 55.599998 53.400002 55 51.599998C 53.599998 48.200001 52 45.799999 48.400002 45C 47.200001 44.799999 46 45 45 45C 44.400002 42 45.599998 39 45 36C 44.599998 34.400002 43.599998 33 42 33C 40.400002 33 39.599998 34.400002 39 36C 37.400002 40.400002 40 45.400002 39 50C 38.200001 49.200001 37.200001 48.799999 36.400002 47.799999C 35.400002 46.799999 33.799999 46.400002 32.799999 47.599998C 32 48.599998 31.6 50 32.599998 51C 34.400002 53 35.400002 55.599998 37.599998 57M 29 57C 24.4 56.200001 19.4 55.200001 15 57C 13 57.799999 11.6 55.200001 11 53C 8.2 40.599998 8.6 27.4 11 15C 11.4 12.8 12.8 10.6 15 11C 27.4 13.6 40.400002 9.8 53 11C 55.200001 11.2 57 12.8 57 15C 56.799999 23.6 57.599998 32.400002 57 41M 11 21C 26.4 21.200001 41.799999 23.200001 57 21M 18 27C 21.799999 25.6 26.200001 28.200001 30 27C 30 27 30.799999 27 31 28C 32.200001 32.599998 31.799999 37.400002 31 42C 31 42 31 43.200001 30 43C 26.200001 41.799999 22 43 18 43C 18 43 17 43 17 42C 16.799999 37.400002 16 32.599998 17 28C 17 28 17 27.200001 18 27M 21 34C 20.799999 35.599998 22.4 37.200001 24 37C 25.6 36.799999 27 35.599998 27 34C 27 32.400002 25.6 31 24 31C 22.4 31 21.200001 32.400002 21 34M 29 43C 25.799999 43.599998 22.200001 43.599998 19 43C 19.200001 40 21 36.200001 24 37C 27 36.200001 30.200001 40.200001 29 43M 18 47C 20.6 47.200001 23.6 46 26 47M 18 51C 20.6 51.599998 23.4 50.200001 26 51M 18 15.4C 18.200001 15.4 18.6 15.8 18.4 16C 18.4 16.200001 18.200001 16.4 18 16.4C 17.799999 16.6 17.6 16.200001 17.6 16M 24 15.4C 24.200001 15.4 24.6 15.8 24.4 16C 24.4 16.200001 24.200001 16.4 24 16.4C 23.799999 16.6 23.4 16.200001 23.6 16M 30 15.4C 30.200001 15.4 30.4 15.8 30.4 16C 30.6 16.200001 30.200001 16.4 30 16.4C 29.799999 16.6 29.6 16.200001 29.6 16C 29.4 15.8 29.799999 15.6 30 15.6M 38 27C 42.400002 26.799999 46.799999 27.6 51 27"></path><path d="M 55 57L 55 51.666C 54.998898 47.984928 52.015076 45.001106 48.334003 45.000004L 45 45L 45 36C 45 34.343147 43.656857 33 42 33C 40.343147 33 39 34.343147 39 36L 39 50L 36.422001 47.84C 35.538345 46.778507 33.961491 46.634342 32.900002 47.517998C 31.838509 48.401653 31.694344 49.978508 32.577999 51.040001L 37.535999 57M 29 57L 15 57C 12.790861 57 11 55.209141 11 53L 11 15C 11 12.790861 12.790861 11 15 11L 53 11C 55.209141 11 57 12.790861 57 15L 57 41M 11 20.998001L 57 20.998001M 18 26.997999L 30 26.997999C 30 26.997999 31 26.997999 31 27.997999L 31 41.998001C 31 41.998001 31 42.998001 30 42.998001L 18 42.998001C 18 42.998001 17 42.998001 17 41.998001L 17 27.997999C 17 27.997999 17 26.997999 18 26.997999M 21 33.998001C 21 35.654854 22.343147 36.998001 24 36.998001C 25.656855 36.998001 27 35.654854 27 33.998001C 27 32.341148 25.656855 30.998001 24 30.998001C 22.343147 30.998001 21 32.341148 21 33.998001M 29 43L 19 43C 18.749329 39.970428 20.974888 37.299755 24 37C 27.025112 37.299755 29.250671 39.970428 29 43ZM 18 46.998001L 26 46.998001M 18 50.998001L 26 50.998001M 18 15.498C 18.275883 15.498002 18.49963 15.721455 18.499996 15.997335C 18.500362 16.273216 18.277208 16.497263 18.001328 16.497997C 17.725449 16.498734 17.501102 16.275879 17.5 16C 17.499468 15.867045 17.551912 15.739354 17.645737 15.645153C 17.739563 15.550952 17.867044 15.497999 18 15.498M 24 15.498C 24.275883 15.498002 24.49963 15.721455 24.499996 15.997335C 24.500362 16.273216 24.277208 16.497263 24.001328 16.497997C 23.725449 16.498734 23.501102 16.275879 23.5 16C 23.499468 15.867045 23.55191 15.739354 23.645737 15.645153C 23.739563 15.550952 23.867044 15.497999 24 15.498M 30 15.498C 30.275881 15.498002 30.49963 15.721455 30.499996 15.997335C 30.500362 16.273216 30.277208 16.497263 30.001328 16.497997C 29.725447 16.498734 29.501104 16.275879 29.5 16C 29.5 15.723858 29.723858 15.5 30 15.5M 38 26.997999L 51 26.997999"></path></g></g></g><g id="g-root-tx_projects_1hd6x0x1ejpd6t-stroke" data-item-order="1000000000" transform="translate(88, 238)"></g><g id="g-root-plan_959y291e9fx8r-stroke" data-item-order="1000000000" transform="translate(184, 238)"><g id="plan_959y291e9fx8r-stroke" fill="none" stroke-linecap="round" stroke-linejoin="round" stroke-miterlimit="4" stroke="#f4f4f4" stroke-width="2"><g><path d="M 22 31C 20.6 30.799999 19.200001 31.6 18 31C 18 24.6 17 18.200001 18 12C 18 11.4 18.4 11 19 11C 25.6 10.8 32.400002 10.8 39 11C 39.599998 11 39.799999 11.4 40 12C 41.599998 18.200001 40 24.6 40 31C 36.400002 30.200001 32.599998 31.4 29 31M 34 31C 33.799999 33 34.599998 35 34 37C 37.200001 37.400002 38.799999 39.799999 40 43C 40.200001 43.400002 39.799999 43.599998 40 44C 38.200001 43.200001 36 43.599998 34 44C 35.200001 47.799999 34.799999 52 34 56C 33.799999 56.599998 33.599998 57 33 57C 26.200001 55.799999 19 56.799999 12 57C 11.4 57 10.8 56.599998 11 56C 13.8 48.599998 10 40 11 32C 11 31.4 11.4 30.799999 12 31C 14 31.4 16 30.4 18 31M 34 48C 41.200001 47 49.200001 45.200001 56 48C 56.599998 48.200001 57.200001 47.599998 57 47C 55.400002 43 57.200001 38.400002 57 34C 53.400002 35.200001 49.599998 30.799999 50 27C 52 27 54 27.4 56 27C 56.599998 27 57.200001 26.6 57 26C 56.400002 24.200001 57 22 57 20C 57 19.4 56.599998 19 56 19C 50.599998 18.6 45.400002 19.200001 40 19M 11 45C 14.4 45 17.6 44.799999 21 45C 21.4 49 21.799999 53 21 57C 18 57.599998 15 57 12 57C 11.4 57 11.2 56.599998 11 56C 10.4 52.400002 10.4 48.599998 11 45M 11 49C 14.4 49.200001 17.6 49.400002 21 49M 11 53C 14.2 53.799999 17.6 52.799999 21 53"></path><path d="M 22 31L 18 31L 18 12C 18 11.447716 18.447716 11 19 11L 39 11C 39.552284 11 40 11.447716 40 12L 40 31L 29 31M 34 31L 34 37L 34 37C 37.313709 37 40 39.686295 40 43L 40 44L 34 44L 34 56C 34 56.552284 33.552284 57 33 57L 12 57C 11.447716 57 11 56.552284 11 56L 11 32C 11 31.447716 11.447716 31 12 31L 18 31M 34 48L 56 48C 56.552284 48 57 47.552284 57 47L 57 34L 57 34C 53.13401 34 50 30.865993 50 27L 56 27C 56.552284 27 57 26.552284 57 26L 57 20C 57 19.447716 56.552284 19 56 19L 40 19M 11 45L 21 45L 21 57L 21 57L 12 57C 11.447716 57 11 56.552284 11 56L 11 45L 11 45ZM 11 49L 21 49M 11 53L 21 53"></path></g></g></g><g id="g-root-acco_1czwa0h1e9fw9b-stroke" data-item-order="1000000000" transform="translate(508, 280)"><g id="acco_1czwa0h1e9fw9b-stroke" fill="none" stroke-linecap="round" stroke-linejoin="round" stroke-miterlimit="4" stroke="#f4f4f4" stroke-width="2"><g><path d="M 15 11C 27.6 11.2 40.599998 13.2 53 11C 53 11 56.799999 11 57 15C 57.599998 27.6 56 40.400002 57 53C 57 53 57 56.400002 53 57C 40.599998 59 27.6 56.200001 15 57C 15 57 11.8 57 11 53C 8.6 40.599998 11.2 27.6 11 15C 11 15 11 10.8 15 11M 11 21C 26.200001 22.6 41.799999 19.4 57 21M 38 27C 42 27.799999 46.200001 28.200001 50 27C 50 27 50.599998 27 51 28C 52 30.6 50.799999 33.400002 51 36C 51 36 51 37.400002 50 37C 46.200001 35.599998 42 36.599998 38 37C 38 37 37.200001 37 37 36C 36.599998 33.400002 36.400002 30.6 37 28C 37 28 37 27 38 27M 38 41C 42 41.799999 46 40.799999 50 41C 50 41 51.200001 41 51 42C 50.599998 44.599998 51.400002 47.400002 51 50C 51 50 51 50.799999 50 51C 46.200001 52 41.799999 50 38 51C 38 51 36.799999 51 37 50C 37.599998 47.400002 36.200001 44.599998 37 42C 37 42 37 40.799999 38 41M 18 27C 21.799999 28.200001 26.200001 26 30 27C 30 27 31 27 31 28C 31 32.599998 31.200001 37.400002 31 42C 31 42 31 43.200001 30 43C 26 42.599998 22 42.400002 18 43C 18 43 17.200001 43 17 42C 16.4 37.400002 17 32.599998 17 28C 17 28 17 27.200001 18 27M 21 34C 20.6 35.599998 22.4 37 24 37C 25.6 37 26.4 35.599998 27 34C 27.6 32.400002 25.6 31.200001 24 31C 22.4 30.799999 21.4 32.400002 21 34M 19 43C 18 40.200001 21.200001 38 24 37C 27 37.400002 28.200001 40 29 43M 18 47C 20.6 47.799999 23.4 47.200001 26 47M 18 51C 20.6 51.599998 23.4 50 26 51M 18 15.6C 18.200001 15.4 18.6 15.8 18.6 16C 18.4 16.200001 18.200001 16.6 18 16.6C 17.799999 16.4 17.4 16.200001 17.6 16C 17.6 15.8 17.799999 15.6 18 15.6M 24 15.6C 24.200001 15.6 24.4 15.8 24.6 16C 24.6 16.200001 24.200001 16.6 24 16.6C 23.799999 16.4 23.6 16.200001 23.6 16C 23.4 15.8 23.799999 15.6 24 15.6M 30 15.6C 30.200001 15.4 30.6 15.8 30.6 16C 30.4 16.200001 30.200001 16.6 30 16.6C 29.799999 16.6 29.4 16.200001 29.6 16C 29.6 15.8 29.799999 15.4 30 15.6"></path><path d="M 15 11L 53 11C 53 11 57 11 57 15L 57 53C 57 53 57 57 53 57L 15 57C 15 57 11 57 11 53L 11 15C 11 15 11 11 15 11M 11 21L 57 21M 38 27L 50 27C 50 27 51 27 51 28L 51 36C 51 36 51 37 50 37L 38 37C 38 37 37 37 37 36L 37 28C 37 28 37 27 38 27M 38 41L 50 41C 50 41 51 41 51 42L 51 50C 51 50 51 51 50 51L 38 51C 38 51 37 51 37 50L 37 42C 37 42 37 41 38 41M 18 27L 30 27C 30 27 31 27 31 28L 31 42C 31 42 31 43 30 43L 18 43C 18 43 17 43 17 42L 17 28C 17 28 17 27 18 27M 21 34C 21 35.656853 22.343147 37 24 37C 25.656855 37 27 35.656853 27 34C 27 32.343147 25.656855 31 24 31C 22.343147 31 21 32.343147 21 34M 19 43C 18.749329 39.970428 20.974888 37.299755 24 37C 27.025112 37.299755 29.250671 39.970428 29 43M 18 47L 26 47M 18 51L 26 51M 18 15.5C 18.276142 15.5 18.5 15.723858 18.5 16C 18.5 16.276142 18.276142 16.5 18 16.5C 17.723858 16.5 17.5 16.276142 17.5 16C 17.5 15.723858 17.723858 15.5 18 15.5M 24 15.5C 24.276142 15.5 24.5 15.723858 24.5 16C 24.5 16.276142 24.276142 16.5 24 16.5C 23.723858 16.5 23.5 16.276142 23.5 16C 23.5 15.723858 23.723858 15.5 24 15.5M 30 15.5C 30.276142 15.5 30.5 15.723858 30.5 16C 30.5 16.276142 30.276142 16.5 30 16.5C 29.723858 16.5 29.5 16.276142 29.5 16C 29.5 15.723858 29.723858 15.5 30 15.5"></path></g></g></g><g id="g-root-tx_personal_8x4gj51ejpb7r-stroke" data-item-order="1000000000" transform="translate(568, 268)"></g><g id="g-root-tx_skillste_2qegh1ejpe6j-stroke" data-item-order="1000000000" transform="translate(40, 322)"></g><g id="g-root-code_4o7hrl1e9fvuw-stroke" data-item-order="1000000000" transform="translate(184, 322)"><g id="code_4o7hrl1e9fvuw-stroke" fill="none" stroke-linecap="round" stroke-linejoin="round" stroke-miterlimit="4" stroke="#f4f4f4" stroke-width="2"><g><path d="M 31.799999 35.799999C 37.599998 36.200001 40.400002 42.599998 41.799999 48.400002C 41.799999 49 41.799999 49.799999 41.799999 50.400002M 25.6 50.400002C 25 45.200001 24.6 39.599998 25.6 34.400002C 26 33.200001 26.6 32.799999 27.6 32.400002C 28.4 32.200001 29 32.599998 29.6 32.400002C 30.799999 32 31.6 33.200001 31.799999 34.400002C 32 39.799999 31.200001 45.200001 31.799999 50.400002M 25.6 35.799999C 20.799999 39.200001 14 42.599998 15.6 48.400002C 15.8 49 16 49.799999 15.6 50.400002M 45.799999 54.400002C 46 55.599998 44.799999 56.200001 43.799999 56.400002C 34 58.799999 23.4 59 13.6 56.400002C 12.6 56.200001 11.4 55.599998 11.6 54.400002C 11.8 53.799999 11.6 53 11.6 52.400002C 11.8 51.200001 12.6 50.200001 13.6 50.400002C 23.6 51.599998 33.799999 49.599998 43.799999 50.400002C 44.799999 50.599998 45.599998 51.200001 45.799999 52.400002C 45.799999 53 45.799999 53.799999 45.799999 54.400002M 28.4 26.4C 29.799999 22.4 28 17.799999 28.4 13.6C 28.4 12.4 29.200001 11.2 30.4 11.6C 36.599998 13.2 43 11.8 49.599998 11.6C 49.799999 11.6 50.599998 11.8 50.799999 12C 52.599998 12.6 54.200001 14.4 55.599998 16C 56 16.4 56.200001 17 56.400002 17.6C 57.200001 25.799999 56 34.200001 56.400002 42.599998C 56.400002 43.799999 55.400002 44.200001 54.400002 44.599998C 52.799999 45.200001 51 44.599998 49.599998 44.599998M 10 10M 36.400002 20C 35.200001 21 34.200001 22 33.400002 23C 34.400002 23.799999 35 25.4 36.400002 26M 10 10M 48.400002 20C 49.599998 20.6 50.599998 21.799999 51.400002 23C 50 23.6 49.400002 25.200001 48.400002 26M 10 10M 40.400002 27C 41.599998 24 43.200001 21 44.400002 18"></path><path d="M 31.700001 35.826797C 37.5 37.226799 41.700001 42.4268 41.700001 48.4268L 41.700001 50.4268M 25.699959 50.426601L 25.699959 34.426598C 25.699959 33.226601 26.49996 32.426598 27.699961 32.426598L 29.699961 32.426598C 30.9 32.426598 31.700001 33.226601 31.700001 34.426598L 31.700001 50.426601M 25.699959 35.826797C 19.89996 37.226799 15.699961 42.4268 15.699961 48.4268L 15.699961 50.4268M 45.700001 54.426601C 45.700001 55.626598 44.900002 56.426601 43.700001 56.426601L 13.69996 56.426601C 12.49996 56.426601 11.699952 55.626598 11.699952 54.426601L 11.699952 52.426601C 11.699952 51.226601 12.49996 50.426601 13.69996 50.426601L 43.700001 50.426601C 44.900002 50.426601 45.700001 51.226601 45.700001 52.426601L 45.700001 54.426601ZM 28.300039 26.39348L 28.300039 13.573299C 28.300039 12.373301 29.10004 11.573304 30.299999 11.573304L 49.5 11.573304C 49.900002 11.573304 50.5 11.773302 50.700001 11.973302L 55.5 15.9733C 55.900002 16.373301 56.299999 16.973301 56.299999 17.573299L 56.299999 42.573399C 56.299999 43.773399 55.5 44.573399 54.299999 44.573399L 49.5 44.573399M 10 10M 36.299999 19.973259L 33.299999 22.973259L 36.299999 25.973259M 10 10M 48.299999 19.973259L 51.299999 22.973259L 48.299999 25.973259M 10 10M 40.299999 26.97332L 44.299999 17.97332"></path></g></g></g><g id="g-root-tx_contactp_zknycx1ejpddt-stroke" data-item-order="1000000000" transform="translate(40, 418)"></g><g id="g-root-link_18egrld1e9mznp-stroke" data-item-order="1000000000" transform="translate(184, 406)"><g id="link_18egrld1e9mznp-stroke" fill="none" stroke-linecap="round" stroke-linejoin="round" stroke-miterlimit="4" stroke="#f4f4f4" stroke-width="2"><g><path d="M 50.200001 47.799999C 51.200001 46 53.599998 45.200001 54.400002 43.599998C 55.400002 41.599998 56.200001 39.200001 54.400002 37.799999C 52.799999 36.400002 50.400002 36.400002 48.799999 37.799999C 47.400002 39.200001 45.799999 40.400002 44.599998 42.200001M 41.799999 45C 40.599998 46.599998 39.200001 48.200001 37.599998 49.200001C 35.599998 50.400002 35.599998 53.799999 37.599998 54.799999C 39.400002 55.799999 42.200001 56.799999 43.200001 54.799999C 44.200001 53 45.599998 51.400002 47.400002 50.599998M 49.599998 42.799999C 47 44.799999 43.799999 46.799999 42.400002 49.799999M 14 20.4C 26.799999 16.4 41 23.4 54 20.4M 20 15.8M 20 15.8C 19.799999 15.8 19.6 16 19.6 16.4C 19.4 16.6 19.799999 16.799999 20 16.799999C 20.200001 16.799999 20.6 16.6 20.6 16.4C 20.4 16 20.200001 15.8 20 15.8M 24 15.8M 24 15.8C 23.799999 15.8 23.6 16 23.6 16.4C 23.6 16.6 23.799999 16.799999 24 16.799999C 24.200001 17 24.4 16.6 24.6 16.4C 24.6 16 24.200001 15.8 24 15.8M 28 15.8M 28 15.8C 27.799999 15.8 27.4 16 27.6 16.4C 27.6 16.6 27.799999 17 28 16.799999C 28.200001 16.799999 28.6 16.6 28.6 16.4C 28.4 16 28.200001 15.8 28 15.8M 30 44.400002C 26 43.599998 21.799999 45.200001 18 44.400002C 15.8 43.799999 14.6 42.599998 14 40.400002C 12.2 32.599998 13.6 24.4 14 16.4C 14.2 14.2 15.8 11.8 18 12.4C 28.4 15.2 39.400002 11.6 50 12.4C 52.200001 12.4 53.400002 14.2 54 16.4C 55.200001 20.200001 53 24.4 54 28.4"></path><path d="M 50.242001 47.764L 54.484001 43.521999C 56.047047 41.960247 56.047798 39.427002 54.485672 37.864323C 52.92355 36.301643 50.390301 36.301498 48.827999 37.863998L 44.585999 42.108002M 41.756001 44.936001L 37.515999 49.178001C 35.953033 50.739864 35.952141 53.273037 37.514 54.836002C 39.075863 56.398968 41.609039 56.399864 43.172001 54.838005L 47.414001 50.599998M 49.535999 42.816002L 42.464001 49.886002M 14 20.352001L 54 20.352001M 20 15.852L 20 15.852M 20 15.852C 19.723858 15.852 19.5 16.075857 19.5 16.352001C 19.5 16.628143 19.723858 16.852001 20 16.852001C 20.276142 16.852001 20.5 16.628143 20.5 16.352001C 20.5 16.075857 20.276142 15.852 20 15.852M 24 15.852L 24 15.852M 24 15.852C 23.723858 15.852 23.5 16.075857 23.5 16.352001C 23.5 16.628143 23.723858 16.852001 24 16.852001C 24.276142 16.852001 24.5 16.628143 24.5 16.352001C 24.5 16.075857 24.276142 15.852 24 15.852M 28 15.852L 28 15.852M 28 15.852C 27.723858 15.852 27.5 16.075857 27.5 16.352001C 27.5 16.628143 27.723858 16.852001 28 16.852001C 28.276142 16.852001 28.5 16.628143 28.5 16.352001C 28.5 16.075857 28.276142 15.852 28 15.852M 30 44.352001L 18 44.352001C 15.790861 44.352001 14 42.561138 14 40.351997L 14 16.352001C 14 14.14286 15.790861 12.352 18 12.352L 50 12.352C 52.209141 12.352 54 14.14286 54 16.352001L 54 28.351999"></path></g></g></g></g></g></svg>