<?xml version="1.0" encoding="utf-8" standalone="yes"?>
<!DOCTYPE svg PUBLIC "-//W3C//DTD SVG 1.1//EN" "http://www.w3.org/Graphics/SVG/1.1/DTD/svg11.dtd">
<svg width="866" height="494" viewBox="0 0 866 494" style="fill:none;stroke:none;fill-rule:evenodd;clip-rule:evenodd;stroke-linecap:round;stroke-linejoin:round;stroke-miterlimit:1.5;" version="1.1" xmlns="http://www.w3.org/2000/svg" xmlns:xlink="http://www.w3.org/1999/xlink"><style class="text-font-style fontImports" data-font-family="Roboto">@import url('https://fonts.googleapis.com/css2?family=Roboto:wght@400;700&amp;display=block');</style><g id="items" style="isolation: isolate"><g id="blend" style="mix-blend-mode: normal"><g id="g-root-ro_1lwrz021fnqj2d-fill" data-item-order="-23400" transform="translate(339, 147)"><g id="ro_1lwrz021fnqj2d-fill" stroke="none" fill="#3f3f3f"><g><path d="M 168.1 152.9L 168.7 150.1L 151.1 135.9L 148.5 149ZM 151.1 135.9L 111.9 152.9L 124.7 169.1L 168.7 150.1ZM 124.7 169.1L 171.1 106.8L 156.4 93.1L 111.9 152.9ZM 156.4 93.1L 86.3 153.6L 100.7 167.6L 171.1 106.8ZM 100.7 167.6L 172.1 79.7L 157.9 65.4L 86.3 153.6ZM 157.9 65.4L 57.7 146.3L 71.9 160.5L 172.1 79.7ZM 71.9 160.5L 167 42.4L 152.2 28.8L 57.7 146.3ZM 152.2 28.8L 24.4 150.7L 39 164.4L 167 42.4ZM 39 164.4L 159.2 20.9L 144.7 7.1L 24.4 150.7ZM 144.7 7.1L 6.5 135.5L 20.9 149.4L 159.2 20.9ZM 20.9 149.4L 132.7 19.8L 118.4 5.7L 6.5 135.5ZM 118.4 5.7L 4.1 106.8L 18.4 120.9L 132.7 19.8ZM 18.4 120.9L 103.6 21L 89.6 6.6L 4.1 106.8ZM 89.6 6.6L 8.8 71.5L 23.1 85.7L 103.6 21ZM 23.1 85.7L 76.3 18.9L 63.3 3.2L 8.8 71.5ZM 63.3 3.2L 3.1 35.3L 15 51.6L 76.3 18.9ZM 15 51.6L 47.7 19.9L 33.8 5.6L 3.1 35.3Z" fill-rule="nonzero"></path></g></g></g><g id="g-root-ro_8vwnhu1fni2gy-fill" data-item-order="-15552" transform="translate(543, 135)"><g id="ro_8vwnhu1fni2gy-fill" stroke="none" fill="#54502f"><g><path d="M 300.5 33.6L 297.5 16.1L 277 15.1L 280.8 37ZM 277 15.1L 264.1 61.3L 284.4 62.9L 297.5 16.1ZM 284.4 62.9L 279.3 17.2L 258.9 14.4L 264.1 61.3ZM 258.9 14.4L 241.2 58.8L 261.9 61L 279.3 17.2ZM 261.9 61L 254 15.2L 233.7 15L 241.2 58.8ZM 233.7 15L 224.5 61.6L 244.9 61.5L 254 15.2ZM 244.9 61.5L 234.7 11.7L 214.2 11.2L 224.5 61.6ZM 214.2 11.2L 202.3 57.9L 222.9 58.2L 234.7 11.7ZM 222.9 58.2L 213.3 15.6L 192.8 15.3L 202.3 57.9ZM 192.8 15.3L 180.3 65.1L 200.8 65.5L 213.3 15.6ZM 200.8 65.5L 189.7 13.1L 169.2 12.8L 180.3 65.1ZM 169.2 12.8L 157.1 62.2L 177.4 63.4L 189.7 13.1ZM 177.4 63.4L 171.5 12.7L 151.2 11.1L 157.1 62.2ZM 151.2 11.1L 137.6 59.4L 157.8 61.3L 171.5 12.7ZM 157.8 61.3L 153.7 12.6L 133.4 10.3L 137.6 59.4ZM 133.4 10.3L 116.8 60.8L 137.3 62.5L 153.7 12.6ZM 137.3 62.5L 129 8.8L 108.5 7L 116.8 60.8ZM 108.5 7L 91.9 56.7L 112.4 58.6L 129 8.8ZM 112.4 58.6L 106 12.6L 85.6 10.9L 91.9 56.7ZM 85.6 10.9L 71.5 56.1L 91.5 59.2L 106 12.6ZM 91.5 59.2L 91.7 17.4L 71.7 12.6L 71.5 56.1ZM 71.7 12.6L 49.5 56.8L 70.1 60.5L 91.7 17.4ZM 70.1 60.5L 64.3 10.8L 43.9 8.6L 49.5 56.8ZM 43.9 8.6L 27.3 56.3L 47.5 59.1L 64.3 10.8ZM 47.5 59.1L 44.5 11.3L 24.2 8.3L 27.3 56.3ZM 24.2 8.3L 4.9 60.7L 25.3 63.4L 44.5 11.3ZM 25.3 63.4L 22 25.5L 2.1 27.2L 4.9 60.7Z" fill-rule="nonzero"></path></g></g></g><g id="g-root-ro_8djw21fnqih8-fill" data-item-order="-15552" transform="translate(273, 345)"><g id="ro_8djw21fnqih8-fill" stroke="none" fill="#45384a"><g><path d="M 300.8 34.4L 304.6 22.5L 285.9 15.3L 281.8 28.4ZM 285.9 15.3L 265.2 60.9L 285.7 64L 304.6 22.5ZM 285.7 64L 279.2 13.9L 258.7 11.5L 265.2 60.9ZM 258.7 11.5L 239.5 62.3L 259.8 65L 279.2 13.9ZM 259.8 65L 254.9 13.6L 234.6 11.5L 239.5 62.3ZM 234.6 11.5L 219.9 58.1L 240.4 59.5L 254.9 13.6ZM 240.4 59.5L 233 15.3L 212.6 14.7L 219.9 58.1ZM 212.6 14.7L 201 64.7L 221.4 65.3L 233 15.3ZM 221.4 65.3L 211.9 10.6L 191.4 9.4L 201 64.7ZM 191.4 9.4L 176.1 61.5L 196.1 64.3L 211.9 10.6ZM 196.1 64.3L 195.6 12.8L 175.5 9.6L 176.1 61.5ZM 175.5 9.6L 157.8 61.2L 178.6 62.3L 195.6 12.8ZM 178.6 62.3L 168.1 16L 147.6 15.9L 157.8 61.2ZM 147.6 15.9L 137.8 58.7L 158.1 59.9L 168.1 16ZM 158.1 59.9L 153.4 16.7L 133 14.7L 137.8 58.7ZM 133 14.7L 118.6 59.6L 138.9 61.7L 153.4 16.7ZM 138.9 61.7L 133.9 14.6L 113.6 12.8L 118.6 59.6ZM 113.6 12.8L 99 64.6L 119.6 65.4L 133.9 14.6ZM 119.6 65.4L 108.6 10.9L 88 9.6L 99 64.6ZM 88 9.6L 71 60.4L 91 63.5L 108.6 10.9ZM 91 63.5L 90.2 15.7L 70.2 11.4L 71 60.4ZM 70.2 11.4L 46.7 61.4L 67 65.2L 90.2 15.7ZM 67 65.2L 62.9 9.4L 42.6 7.4L 46.7 61.4ZM 42.6 7.4L 27.1 62L 47.2 64.3L 62.9 9.4ZM 47.2 64.3L 44.6 11.7L 24.4 8.2L 27.1 62ZM 24.4 8.2L 6.2 52.5L 25.2 59L 44.6 11.7ZM 25.2 59L 28 49.1L 8.7 43.7L 6.2 52.5Z" fill-rule="nonzero"></path></g></g></g><g id="g-root-ro_v497g21fngq2x-fill" data-item-order="-14904" transform="translate(15, 123)"><g id="ro_v497g21fngq2x-fill" stroke="none" fill="#363d49"><g><path d="M 289.5 22.9L 288.4 20.4L 266.9 21.3L 271.2 31.1ZM 266.9 21.3L 252.3 63.1L 272.9 64.7L 288.4 20.4ZM 272.9 64.7L 264.3 17.3L 243.6 15.3L 252.3 63.1ZM 243.6 15.3L 224.2 63.9L 244.5 66.9L 264.3 17.3ZM 244.5 66.9L 239.5 11L 219.3 9.9L 224.2 63.9ZM 219.3 9.9L 208.5 61.9L 228.9 62.4L 239.5 11ZM 228.9 62.4L 220.3 8.7L 199.9 7.8L 208.5 61.9ZM 199.9 7.8L 185.6 65.2L 205.8 66.8L 220.3 8.7ZM 205.8 66.8L 201.4 12.3L 181.3 10.7L 185.6 65.2ZM 181.3 10.7L 168.8 61.6L 189.1 62.8L 201.4 12.3ZM 189.1 62.8L 183.1 13.8L 162.5 10.3L 168.8 61.6ZM 162.5 10.3L 139.7 55.7L 159.9 60L 183.1 13.8ZM 159.9 60L 157.9 12.9L 137.8 10.8L 139.7 55.7ZM 137.8 10.8L 124.6 61.8L 144.9 63.4L 157.9 12.9ZM 144.9 63.4L 139.6 10.1L 119.1 6.1L 124.6 61.8ZM 119.1 6.1L 92.1 56.8L 111.9 62.3L 139.6 10.1ZM 111.9 62.3L 114.4 15.1L 94.6 10.4L 92.1 56.8ZM 94.6 10.4L 73.9 58.1L 94.5 61L 114.4 15.1ZM 94.5 61L 88.2 13.4L 67.7 11.4L 73.9 58.1ZM 67.7 11.4L 51.1 60.8L 71.3 63.6L 88.2 13.4ZM 71.3 63.6L 68.8 12.1L 48.7 10.1L 51.1 60.8ZM 48.7 10.1L 35.5 63.1L 56.1 63.3L 68.8 12.1ZM 56.1 63.3L 45.3 16.8L 24.4 15.3L 35.5 63.1ZM 24.4 15.3L 9.8 53.1L 30.1 55.8L 45.3 16.8ZM 30.1 55.8L 29 44.3L 9.1 46.3L 9.8 53.1Z" fill-rule="nonzero"></path></g></g></g><g id="g-root-tx_robotcom_dgq1gy1fngqh8-fill" data-item-order="0" transform="translate(135, 39)"><g id="tx_robotcom_dgq1gy1fngqh8-fill" stroke="none" fill="#f4f4f4"><g><text style="font: 25px &quot;Roboto&quot;, sans-serif; white-space: pre;" font-size="25px" font-family="'Roboto', sans-serif"><tspan x="17.34" y="43.5" dominant-baseline="ideographic">Robot Command Functionalities and Relationships</tspan></text></g></g></g><g id="g-root-cu_1lualma1fngo3w-fill" data-item-order="0" transform="translate(297, 399)"></g><g id="g-root-tx_fire_1lrsm421fni3nr-fill" data-item-order="0" transform="translate(321, 411)"><g id="tx_fire_1lrsm421fni3nr-fill" stroke="none" fill="#f4f4f4"><g><text style="font: 20px &quot;Roboto&quot;, sans-serif; white-space: pre;" font-size="20px" font-family="'Roboto', sans-serif"><tspan x="17.44" y="34" dominant-baseline="ideographic">Fire</tspan></text></g></g></g><g id="g-root-cu_ddlo1e1fngpaa-fill" data-item-order="0" transform="translate(291, 150)"></g><g id="g-root-cu_255o21fngqv9-fill" data-item-order="0" transform="translate(417, 297)"></g><g id="g-root-tx_turnrigh_1ilf61fni5fq-fill" data-item-order="0" transform="translate(147, 297)"><g id="tx_turnrigh_1ilf61fni5fq-fill" stroke="none" fill="#f4f4f4"><g><text style="font: 20px &quot;Roboto&quot;, sans-serif; white-space: pre;" font-size="20px" font-family="'Roboto', sans-serif"><tspan x="12.59" y="34" dominant-baseline="ideographic">Turn Right</tspan></text></g></g></g><g id="g-root-cu_v64mpe1fngp3i-fill" data-item-order="0" transform="translate(249, 177)"></g><g id="g-root-cu_mahmgi1fngqo0-fill" data-item-order="0" transform="translate(249, 177)"></g><g id="g-root-cu_40kxe1fngpvu-fill" data-item-order="0" transform="translate(249, 177)"></g><g id="g-root-tx_turnleft_dcz3si1fni3ut-fill" data-item-order="0" transform="translate(159, 261)"><g id="tx_turnleft_dcz3si1fni3ut-fill" stroke="none" fill="#f4f4f4"><g><text style="font: 20px &quot;Roboto&quot;, sans-serif; white-space: pre;" font-size="20px" font-family="'Roboto', sans-serif"><tspan x="12.15" y="34" dominant-baseline="ideographic">Turn Left</tspan></text></g></g></g><g id="g-root-cu_1lsf6cy1fngp3c-fill" data-item-order="0" transform="translate(495, 162)"></g><g id="g-root-tx_repair_hu1k361fni58p-fill" data-item-order="0" transform="translate(591, 237)"><g id="tx_repair_hu1k361fni58p-fill" stroke="none" fill="#f4f4f4"><g><text style="font: 20px &quot;Roboto&quot;, sans-serif; white-space: pre;" font-size="20px" font-family="'Roboto', sans-serif"><tspan x="17.66" y="34" dominant-baseline="ideographic">Repair</tspan></text></g></g></g><g id="g-root-tx_forward_1lpx6uq1fni4nf-fill" data-item-order="0" transform="translate(159, 189)"><g id="tx_forward_1lpx6uq1fni4nf-fill" stroke="none" fill="#f4f4f4"><g><text style="font: 20px &quot;Roboto&quot;, sans-serif; white-space: pre;" font-size="20px" font-family="'Roboto', sans-serif"><tspan x="15.5" y="34" dominant-baseline="ideographic">Forward</tspan></text></g></g></g><g id="g-root-cu_18gynzm1fngqob-fill" data-item-order="0" transform="translate(249, 177)"></g><g id="g-root-tx_back_13z9ng21fni3us-fill" data-item-order="0" transform="translate(195, 225)"><g id="tx_back_13z9ng21fni3us-fill" stroke="none" fill="#f4f4f4"><g><text style="font: 20px &quot;Roboto&quot;, sans-serif; white-space: pre;" font-size="20px" font-family="'Roboto', sans-serif"><tspan x="12.02" y="34" dominant-baseline="ideographic">Back</tspan></text></g></g></g><g id="g-root-tx_reload_14152pe1fni2v4-fill" data-item-order="0" transform="translate(591, 201)"><g id="tx_reload_14152pe1fni2v4-fill" stroke="none" fill="#f4f4f4"><g><text style="font: 20px &quot;Roboto&quot;, sans-serif; white-space: pre;" font-size="20px" font-family="'Roboto', sans-serif"><tspan x="15.32" y="34" dominant-baseline="ideographic">Reload</tspan></text></g></g></g><g id="g-root-cu_qs6jua1fngowa-fill" data-item-order="0" transform="translate(567, 189)"></g><g id="g-root-cu_18iu38y1fngpov-fill" data-item-order="0" transform="translate(567, 189)"></g><g id="g-root-tx_robotcom_14490c21fnqj9f-fill" data-item-order="2000000000" transform="translate(363, 225)"><g id="tx_robotcom_14490c21fnqj9f-fill" stroke="none" fill="#b7b7b7"><g><text style="font: 20px &quot;Roboto&quot;, sans-serif; white-space: pre;" font-size="20px" font-family="'Roboto', sans-serif"><tspan x="37.56" y="34" dominant-baseline="ideographic">Robot </tspan><tspan x="12.49" y="58" dominant-baseline="ideographic">Commands</tspan></text></g></g></g><g id="g-root-code_hxrysy1fnqih8-fill" data-item-order="2000000000" transform="translate(393, 171)"></g><g id="g-root-tx_maintena_147dtki1fngqa0-fill" data-item-order="2000000000" transform="translate(591, 150)"><g id="tx_maintena_147dtki1fngqa0-fill" stroke="none" fill="#ddc916"><g><text style="font: 20px &quot;Roboto&quot;, sans-serif; white-space: pre;" font-size="20px" font-family="'Roboto', sans-serif"><tspan x="12.27" y="34" dominant-baseline="ideographic">Maintenance Commands</tspan></text></g></g></g><g id="g-root-sear_mgqa5u1fngphd-fill" data-item-order="2000000000" transform="translate(555, 147)"></g><g id="g-root-cont_meulf61fnqj9f-fill" data-item-order="2000000000" transform="translate(285, 357)"></g><g id="g-root-tx_engageme_1hgyn761fnqih6-fill" data-item-order="2000000000" transform="translate(321, 360)"><g id="tx_engageme_1hgyn761fnqih6-fill" stroke="none" fill="#cb68f9"><g><text style="font: 20px &quot;Roboto&quot;, sans-serif; white-space: pre;" font-size="20px" font-family="'Roboto', sans-serif"><tspan x="13.96" y="34" dominant-baseline="ideographic">Engagement Commands</tspan></text></g></g></g><g id="g-root-robo_1haq8z61fngqv4-fill" data-item-order="2000000000" transform="translate(249, 135)"></g><g id="g-root-tx_movement_hrjqwi1fngphr-fill" data-item-order="2000000000" transform="translate(27, 138)"><g id="tx_movement_hrjqwi1fngphr-fill" stroke="none" fill="#4f91fc"><g><text style="font: 20px &quot;Roboto&quot;, sans-serif; white-space: pre;" font-size="20px" font-family="'Roboto', sans-serif"><tspan x="16.69" y="34" dominant-baseline="ideographic">Movement Commands</tspan></text></g></g></g><g id="g-root-ro_1lwrz021fnqj2d-stroke" data-item-order="-23400" transform="translate(339, 147)"><g id="ro_1lwrz021fnqj2d-stroke" fill="none" stroke-linecap="round" stroke-linejoin="round" stroke-miterlimit="4" stroke="#f4f4f4" stroke-width="2"><g><path d="M 34 10L 142 10C 142 10 166 10 166 34L 166 136C 166 136 166 160 142 160L 34 160C 34 160 10 160 10 136L 10 34C 10 34 10 10 34 10"></path></g></g></g><g id="g-root-ro_8vwnhu1fni2gy-stroke" data-item-order="-15552" transform="translate(543, 135)"><g id="ro_8vwnhu1fni2gy-stroke" fill="none" stroke-linecap="round" stroke-linejoin="round" stroke-miterlimit="4" stroke="#ddc916" stroke-width="2"><g><path d="M 22 10L 286 10C 286 10 298 10 298 22L 298 52C 298 52 298 64 286 64L 22 64C 22 64 10 64 10 52L 10 22C 10 22 10 10 22 10"></path></g></g></g><g id="g-root-ro_8djw21fnqih8-stroke" data-item-order="-15552" transform="translate(273, 345)"><g id="ro_8djw21fnqih8-stroke" fill="none" stroke-linecap="round" stroke-linejoin="round" stroke-miterlimit="4" stroke="#cb68f9" stroke-width="2"><g><path d="M 22 10L 286 10C 286 10 298 10 298 22L 298 52C 298 52 298 64 286 64L 22 64C 22 64 10 64 10 52L 10 22C 10 22 10 10 22 10"></path></g></g></g><g id="g-root-ro_v497g21fngq2x-stroke" data-item-order="-14904" transform="translate(15, 123)"><g id="ro_v497g21fngq2x-stroke" fill="none" stroke-linecap="round" stroke-linejoin="round" stroke-miterlimit="4" stroke="#4f91fc" stroke-width="2"><g><path d="M 22 10L 274 10C 274 10 286 10 286 22L 286 52C 286 52 286 64 274 64L 22 64C 22 64 10 64 10 52L 10 22C 10 22 10 10 22 10"></path></g></g></g><g id="g-root-tx_robotcom_dgq1gy1fngqh8-stroke" data-item-order="0" transform="translate(135, 39)"></g><g id="g-root-cu_1lualma1fngo3w-stroke" data-item-order="0" transform="translate(297, 399)"><g id="cu_1lualma1fngo3w-stroke" fill="none" stroke-linecap="round" stroke-linejoin="round" stroke-miterlimit="4" stroke="#b7b7b7" stroke-width="2" stroke-dasharray="5.0, 7.0"><g><path d="M 10 10L 10 13L 10 22C 10 28.627416 15.372583 33.999999 22 33.999999L 22.1 34L 28 34"></path></g></g></g><g id="g-root-tx_fire_1lrsm421fni3nr-stroke" data-item-order="0" transform="translate(321, 411)"></g><g id="g-root-cu_ddlo1e1fngpaa-stroke" data-item-order="0" transform="translate(291, 150)"><g id="cu_ddlo1e1fngpaa-stroke" fill="none" stroke-linecap="round" stroke-linejoin="round" stroke-miterlimit="4" stroke="#b7b7b7" stroke-width="2" stroke-dasharray="5.0, 7.0"><g><path d="M 58 57L 55 57L 54.9 57C 43.357246 56.999996 33.999999 47.642748 33.999998 36.099998L 34 36L 34 30.9C 33.999998 19.357248 24.64275 10 13.1 10L 13 10L 10 10"></path></g></g></g><g id="g-root-cu_255o21fngqv9-stroke" data-item-order="0" transform="translate(417, 297)"><g id="cu_255o21fngqv9-stroke" fill="none" stroke-linecap="round" stroke-linejoin="round" stroke-miterlimit="4" stroke="#b7b7b7" stroke-width="2" stroke-dasharray="5.0, 7.0"><g><path d="M 10 10L 10 34L 10 58"></path></g></g></g><g id="g-root-tx_turnrigh_1ilf61fni5fq-stroke" data-item-order="0" transform="translate(147, 297)"></g><g id="g-root-cu_v64mpe1fngp3i-stroke" data-item-order="0" transform="translate(249, 177)"><g id="cu_v64mpe1fngp3i-stroke" fill="none" stroke-linecap="round" stroke-linejoin="round" stroke-miterlimit="4" stroke="#b7b7b7" stroke-width="2" stroke-dasharray="5.0, 7.0"><g><path d="M 28 10L 28 40L 28 70L 19 70L 10 70"></path></g></g></g><g id="g-root-cu_mahmgi1fngqo0-stroke" data-item-order="0" transform="translate(249, 177)"><g id="cu_mahmgi1fngqo0-stroke" fill="none" stroke-linecap="round" stroke-linejoin="round" stroke-miterlimit="4" stroke="#b7b7b7" stroke-width="2" stroke-dasharray="5.0, 7.0"><g><path d="M 28 10L 28 58L 28 106L 19 106L 10 106"></path></g></g></g><g id="g-root-cu_40kxe1fngpvu-stroke" data-item-order="0" transform="translate(249, 177)"><g id="cu_40kxe1fngpvu-stroke" fill="none" stroke-linecap="round" stroke-linejoin="round" stroke-miterlimit="4" stroke="#b7b7b7" stroke-width="2" stroke-dasharray="5.0, 7.0"><g><path d="M 28 10L 28 26.5L 28 130C 28.000005 136.627421 22.627422 142.000005 16.000005 142.000005L 15.9 142L 10 142"></path></g></g></g><g id="g-root-tx_turnleft_dcz3si1fni3ut-stroke" data-item-order="0" transform="translate(159, 261)"></g><g id="g-root-cu_1lsf6cy1fngp3c-stroke" data-item-order="0" transform="translate(495, 162)"><g id="cu_1lsf6cy1fngp3c-stroke" fill="none" stroke-linecap="round" stroke-linejoin="round" stroke-miterlimit="4" stroke="#b7b7b7" stroke-width="2" stroke-dasharray="5.0, 7.0"><g><path d="M 10 45L 13 45L 13.1 45C 17.577866 44.972592 22.360217 43.214375 26.699999 40C 29.320119 38.118536 31.98143 33.561497 33.999999 27.499999C 36.018569 21.438502 38.67988 16.881462 41.299999 15C 45.63978 11.785625 50.422131 10.027407 54.899998 9.999999L 55 10L 58 10"></path></g></g></g><g id="g-root-tx_repair_hu1k361fni58p-stroke" data-item-order="0" transform="translate(591, 237)"></g><g id="g-root-tx_forward_1lpx6uq1fni4nf-stroke" data-item-order="0" transform="translate(159, 189)"></g><g id="g-root-cu_18gynzm1fngqob-stroke" data-item-order="0" transform="translate(249, 177)"><g id="cu_18gynzm1fngqob-stroke" fill="none" stroke-linecap="round" stroke-linejoin="round" stroke-miterlimit="4" stroke="#b7b7b7" stroke-width="2" stroke-dasharray="5.0, 7.0"><g><path d="M 28 10L 28 22L 28 34L 19 34L 10 34"></path></g></g></g><g id="g-root-tx_back_13z9ng21fni3us-stroke" data-item-order="0" transform="translate(195, 225)"></g><g id="g-root-tx_reload_14152pe1fni2v4-stroke" data-item-order="0" transform="translate(591, 201)"></g><g id="g-root-cu_qs6jua1fngowa-stroke" data-item-order="0" transform="translate(567, 189)"><g id="cu_qs6jua1fngowa-stroke" fill="none" stroke-linecap="round" stroke-linejoin="round" stroke-miterlimit="4" stroke="#b7b7b7" stroke-width="2" stroke-dasharray="5.0, 7.0"><g><path d="M 10 10L 10 17.5L 10 58C 10.000002 64.627417 15.372585 70 22.000002 69.999999L 22.1 70L 28 70"></path></g></g></g><g id="g-root-cu_18iu38y1fngpov-stroke" data-item-order="0" transform="translate(567, 189)"><g id="cu_18iu38y1fngpov-stroke" fill="none" stroke-linecap="round" stroke-linejoin="round" stroke-miterlimit="4" stroke="#b7b7b7" stroke-width="2" stroke-dasharray="5.0, 7.0"><g><path d="M 10 10L 10 22L 10 34L 19 34L 28 34"></path></g></g></g><g id="g-root-tx_robotcom_14490c21fnqj9f-stroke" data-item-order="2000000000" transform="translate(363, 225)"></g><g id="g-root-code_hxrysy1fnqih8-stroke" data-item-order="2000000000" transform="translate(393, 171)"><g id="code_hxrysy1fnqih8-stroke" fill="none" stroke-linecap="round" stroke-linejoin="round" stroke-miterlimit="4" stroke="#b7b7b7" stroke-width="2"><g><path d="M 35.071999 54.858002C 35.070896 56.041317 34.11132 57 32.928001 57L 13.642 57C 12.459463 56.998898 11.501102 56.040539 11.5 54.858002L 11.5 49.5C 11.5 42.990772 16.776772 37.714001 23.285999 37.714001C 29.795229 37.714001 35.071999 42.990772 35.071999 49.5ZM 18.785999 45C 18.785999 45.276142 19.009857 45.5 19.285999 45.5C 19.562141 45.5 19.785999 45.276142 19.785999 45C 19.785999 44.723858 19.562141 44.5 19.285999 44.5C 19.009857 44.5 18.785999 44.723858 18.785999 45M 26.785999 44.987999C 26.785999 45.264141 27.009857 45.487999 27.285999 45.487999C 27.562143 45.487999 27.785999 45.264141 27.785999 44.987999C 27.785999 44.711857 27.562143 44.487999 27.285999 44.487999C 27.009857 44.487999 26.785999 44.711857 26.785999 44.987999M 23.285999 37.714001L 23.285999 33.428001M 20.071999 30.214001C 20.072001 31.989044 21.510956 33.428001 23.285999 33.428001C 25.061043 33.428001 26.5 31.989044 26.5 30.214001C 26.5 28.438957 25.061043 27 23.285999 27C 21.510956 27 20.072001 28.438957 20.072001 30.214001M 11.5 51.630001L 35.071999 51.630001M 48.5 12L 56.5 20L 48.5 28M 32.5 12L 24.5 20L 32.5 28M 42.5 11L 38.5 29"></path></g></g></g><g id="g-root-tx_maintena_147dtki1fngqa0-stroke" data-item-order="2000000000" transform="translate(591, 150)"></g><g id="g-root-sear_mgqa5u1fngphd-stroke" data-item-order="2000000000" transform="translate(555, 147)"><g id="sear_mgqa5u1fngphd-stroke" fill="none" stroke-linecap="round" stroke-linejoin="round" stroke-miterlimit="4" stroke="#ddc916" stroke-width="2"><g><path d="M 24.687374 32.562374C 30.003126 32.562374 34.312374 28.253124 34.312374 22.937376C 34.312374 17.621637 30.003126 13.312375 24.687374 13.312375C 19.371662 13.312375 15.062412 17.621637 15.062412 22.937376C 15.062412 28.253124 19.371662 32.562374 24.687374 32.562374ZM 10 10M 38.437378 36.6875L 31.562376 29.6875M 10.9375 23.562624L 18.1875 23.562624L 19.4375 21.062624L 22.5625 27.312624L 25.0625 16.687626L 27.5625 28.562624L 30.6875 23.562624L 39.0625 23.562624"></path></g></g></g><g id="g-root-cont_meulf61fnqj9f-stroke" data-item-order="2000000000" transform="translate(285, 357)"><g id="cont_meulf61fnqj9f-stroke" fill="none" stroke-linecap="round" stroke-linejoin="round" stroke-miterlimit="4" stroke="#cb68f9" stroke-width="2"><g><path d="M 25.3575 38.02375C 25.3575 38.763611 24.757359 39.36319 24.0175 39.362499L 11.96375 39.362499C 11.224379 39.362499 10.625 38.763119 10.625 38.02375L 10.625 34.674999C 10.625 30.606731 13.922983 27.308752 17.991251 27.308752C 22.059519 27.308752 25.3575 30.606731 25.3575 34.675003ZM 15.17875 31.862499C 15.17875 32.035088 15.318661 32.174999 15.49125 32.174999C 15.663839 32.174999 15.80375 32.035088 15.80375 31.862499C 15.80375 31.689911 15.663839 31.549999 15.49125 31.549999C 15.318661 31.549999 15.17875 31.689911 15.17875 31.862499M 20.178749 31.855C 20.178749 32.027588 20.318661 32.1675 20.491249 32.1675C 20.663839 32.1675 20.803749 32.027588 20.803749 31.855C 20.803749 31.682411 20.663839 31.5425 20.491249 31.5425C 20.318661 31.5425 20.178749 31.682411 20.178749 31.855M 17.991251 27.309999L 17.991251 24.63125M 15.9825 22.622499C 15.9825 23.731903 16.881847 24.63125 17.991251 24.63125C 19.100653 24.63125 20 23.731903 20 22.622501C 20 21.513098 19.100653 20.61375 17.991251 20.61375C 16.881847 20.61375 15.9825 21.513098 15.9825 22.622501M 18.125 18.112499L 18.125 11.8875C 18.125 11.197145 18.684645 10.6375 19.375 10.6375L 38.125 10.6375C 38.815353 10.6375 39.375 11.197145 39.375 11.8875L 39.375 22.463749C 39.375 23.154106 38.815353 23.713749 38.125 23.713749L 23.125 23.713749M 24.515001 14.2225L 24.515001 20.12875M 21.5625 17.174999L 27.46875 17.174999M 33.75 14.675C 33.922588 14.675 34.0625 14.814911 34.0625 14.9875M 33.4375 14.9875C 33.4375 14.814911 33.577412 14.675 33.75 14.675M 33.75 15.299999C 33.577412 15.299999 33.4375 15.160089 33.4375 14.9875M 34.0625 14.9875C 34.0625 15.160089 33.922588 15.299999 33.75 15.299999M 33.75 19.19125C 33.922588 19.19125 34.0625 19.331161 34.0625 19.50375M 33.4375 19.5C 33.4375 19.327412 33.577412 19.1875 33.75 19.1875M 33.75 19.81625C 33.577412 19.81625 33.4375 19.676338 33.4375 19.50375M 34.0625 19.5C 34.0625 19.672588 33.922588 19.8125 33.75 19.8125M 36.32 17.25C 36.32 17.422588 36.180088 17.5625 36.0075 17.5625M 36.0075 16.93375C 36.090481 16.933416 36.170162 16.966232 36.228836 17.02491C 36.287518 17.083588 36.320335 17.163267 36.32 17.24625M 35.695 17.25C 35.694664 17.167017 35.727482 17.087337 35.78616 17.02866C 35.844837 16.969982 35.924519 16.937166 36.0075 16.9375M 36.0075 17.55875C 35.834911 17.55875 35.695 17.418839 35.695 17.24625M 31.805 17.25C 31.805 17.422588 31.665089 17.5625 31.4925 17.5625M 31.4925 16.93375C 31.575481 16.933416 31.655161 16.966232 31.713839 17.02491C 31.772516 17.083588 31.805334 17.163267 31.805 17.24625M 31.18 17.25C 31.179667 17.167017 31.212482 17.087337 31.27116 17.02866C 31.329838 16.969982 31.409515 16.937166 31.4925 16.9375M 31.4925 17.55875C 31.319912 17.55875 31.18 17.418839 31.18 17.24625M 10.625 36.006248L 25.3575 36.006248"></path></g></g></g><g id="g-root-tx_engageme_1hgyn761fnqih6-stroke" data-item-order="2000000000" transform="translate(321, 360)"></g><g id="g-root-robo_1haq8z61fngqv4-stroke" data-item-order="2000000000" transform="translate(249, 135)"><g id="robo_1haq8z61fngqv4-stroke" fill="none" stroke-linecap="round" stroke-linejoin="round" stroke-miterlimit="4" stroke="#4f91fc" stroke-width="2"><g><path d="M 19.559988 38.978752L 11.07544 35.229L 11.07544 15.600588L 19.559988 19.350338M 28.043875 26.068375L 28.043875 35.227875L 19.559324 38.977501L 19.559324 19.349226L 24.533251 17.109375M 10 10M 28.043249 35.228752L 36.527752 38.9785L 36.527752 26.064499M 30.942499 14.23875L 36.424999 14.23875C 36.424999 14.23875 38.924999 14.23875 38.924999 16.73875L 38.924999 19.893749C 38.924999 19.893749 38.924999 22.393749 36.424999 22.393749L 30.942499 22.393749C 30.942499 22.393749 28.442499 22.393749 28.442499 19.893749L 28.442499 16.73875C 28.442499 16.73875 28.442499 14.23875 30.942499 14.23875M 10 10M 33.684124 11.021813L 33.684124 14.238275M 10 10M 31.965374 17.590725L 31.965374 19.042974M 10 10M 35.402874 17.590725L 35.402874 19.042974"></path></g></g></g><g id="g-root-tx_movement_hrjqwi1fngphr-stroke" data-item-order="2000000000" transform="translate(27, 138)"></g></g></g></svg>